<svg id="visual" viewBox="0 0 675 900" width="675" height="900" xmlns="http://www.w3.org/2000/svg" xmlns:xlink="http://www.w3.org/1999/xlink" version="1.1"><g stroke-width="1" stroke-linejoin="bevel"><path d="M393 456L465 481L401 410Z" fill="#ec963a" stroke="#ec963a"></path><path d="M465 481L494 403L401 410Z" fill="#e08639" stroke="#e08639"></path><path d="M494 403L422 375L401 410Z" fill="#f7a73b" stroke="#f7a73b"></path><path d="M465 481L521 425L494 403Z" fill="#fcaf3c" stroke="#fcaf3c"></path><path d="M452 293L398 336L422 375Z" fill="#f7a73b" stroke="#f7a73b"></path><path d="M422 375L398 336L401 410Z" fill="#e38a39" stroke="#e38a39"></path><path d="M276 437L349 536L393 456Z" fill="#faab3c" stroke="#faab3c"></path><path d="M465 481L534 502L521 425Z" fill="#f7a73b" stroke="#f7a73b"></path><path d="M393 456L418 557L465 481Z" fill="#e08639" stroke="#e08639"></path><path d="M465 481L418 557L534 502Z" fill="#faab3c" stroke="#faab3c"></path><path d="M276 437L393 456L401 410Z" fill="#f29e3a" stroke="#f29e3a"></path><path d="M393 456L349 536L418 557Z" fill="#f7a73b" stroke="#f7a73b"></path><path d="M534 502L572 414L521 425Z" fill="#faab3c" stroke="#faab3c"></path><path d="M521 425L572 414L494 403Z" fill="#f4a23b" stroke="#f4a23b"></path><path d="M494 403L509 316L422 375Z" fill="#ec963a" stroke="#ec963a"></path><path d="M398 336L326 359L401 410Z" fill="#ef9a3a" stroke="#ef9a3a"></path><path d="M572 414L509 316L494 403Z" fill="#ec963a" stroke="#ec963a"></path><path d="M509 316L452 293L422 375Z" fill="#ef9a3a" stroke="#ef9a3a"></path><path d="M335 263L290 299L326 359Z" fill="#ec963a" stroke="#ec963a"></path><path d="M550 560L568 537L534 502Z" fill="#e68e39" stroke="#e68e39"></path><path d="M534 502L568 537L572 414Z" fill="#e9923a" stroke="#e9923a"></path><path d="M326 359L276 437L401 410Z" fill="#f4a23b" stroke="#f4a23b"></path><path d="M418 557L550 560L534 502Z" fill="#f29e3a" stroke="#f29e3a"></path><path d="M316 585L340 575L283 553Z" fill="#e08639" stroke="#e08639"></path><path d="M349 536L340 575L418 557Z" fill="#fcaf3c" stroke="#fcaf3c"></path><path d="M418 557L447 628L550 560Z" fill="#e68e39" stroke="#e68e39"></path><path d="M326 359L264 376L276 437Z" fill="#f29e3a" stroke="#f29e3a"></path><path d="M290 299L264 376L326 359Z" fill="#fcaf3c" stroke="#fcaf3c"></path><path d="M432 225L409 255L452 293Z" fill="#e08639" stroke="#e08639"></path><path d="M452 293L409 255L398 336Z" fill="#fcaf3c" stroke="#fcaf3c"></path><path d="M380 639L447 628L418 557Z" fill="#f4a23b" stroke="#f4a23b"></path><path d="M283 553L340 575L349 536Z" fill="#e68e39" stroke="#e68e39"></path><path d="M340 575L380 639L418 557Z" fill="#e9923a" stroke="#e9923a"></path><path d="M276 437L283 553L349 536Z" fill="#faab3c" stroke="#faab3c"></path><path d="M195 492L283 553L276 437Z" fill="#f4a23b" stroke="#f4a23b"></path><path d="M581 268L520 254L509 316Z" fill="#f7a73b" stroke="#f7a73b"></path><path d="M509 316L520 254L452 293Z" fill="#fcaf3c" stroke="#fcaf3c"></path><path d="M335 263L326 359L398 336Z" fill="#f7a73b" stroke="#f7a73b"></path><path d="M409 255L335 263L398 336Z" fill="#e08639" stroke="#e08639"></path><path d="M316 585L380 639L340 575Z" fill="#f7a73b" stroke="#f7a73b"></path><path d="M675 447L624 342L572 414Z" fill="#f7a73b" stroke="#f7a73b"></path><path d="M572 414L624 342L509 316Z" fill="#f4a23b" stroke="#f4a23b"></path><path d="M520 254L432 225L452 293Z" fill="#faab3c" stroke="#faab3c"></path><path d="M344 156L314 181L335 263Z" fill="#f7a73b" stroke="#f7a73b"></path><path d="M550 560L568 617L568 537Z" fill="#fcaf3c" stroke="#fcaf3c"></path><path d="M675 492L675 447L572 414Z" fill="#f7a73b" stroke="#f7a73b"></path><path d="M447 628L568 617L550 560Z" fill="#e38a39" stroke="#e38a39"></path><path d="M489 699L568 617L447 628Z" fill="#f4a23b" stroke="#f4a23b"></path><path d="M624 342L581 268L509 316Z" fill="#faab3c" stroke="#faab3c"></path><path d="M520 254L499 123L432 225Z" fill="#f4a23b" stroke="#f4a23b"></path><path d="M189 350L211 417L264 376Z" fill="#e08639" stroke="#e08639"></path><path d="M264 376L211 417L276 437Z" fill="#f29e3a" stroke="#f29e3a"></path><path d="M675 492L572 414L568 537Z" fill="#f29e3a" stroke="#f29e3a"></path><path d="M675 601L675 492L568 537Z" fill="#ef9a3a" stroke="#ef9a3a"></path><path d="M211 417L195 492L276 437Z" fill="#f29e3a" stroke="#f29e3a"></path><path d="M204 644L330 688L316 585Z" fill="#faab3c" stroke="#faab3c"></path><path d="M316 585L330 688L380 639Z" fill="#e68e39" stroke="#e68e39"></path><path d="M675 447L675 343L624 342Z" fill="#f29e3a" stroke="#f29e3a"></path><path d="M624 342L675 289L581 268Z" fill="#f4a23b" stroke="#f4a23b"></path><path d="M380 639L461 699L447 628Z" fill="#e08639" stroke="#e08639"></path><path d="M461 699L489 699L447 628Z" fill="#e9923a" stroke="#e9923a"></path><path d="M220 286L189 350L264 376Z" fill="#e9923a" stroke="#e9923a"></path><path d="M211 417L171 493L195 492Z" fill="#fcaf3c" stroke="#fcaf3c"></path><path d="M220 286L264 376L290 299Z" fill="#e08639" stroke="#e08639"></path><path d="M249 213L290 299L335 263Z" fill="#e9923a" stroke="#e9923a"></path><path d="M249 213L220 286L290 299Z" fill="#e68e39" stroke="#e68e39"></path><path d="M207 586L316 585L283 553Z" fill="#e38a39" stroke="#e38a39"></path><path d="M380 639L362 711L461 699Z" fill="#e9923a" stroke="#e9923a"></path><path d="M134 483L171 493L211 417Z" fill="#ef9a3a" stroke="#ef9a3a"></path><path d="M195 492L207 586L283 553Z" fill="#ef9a3a" stroke="#ef9a3a"></path><path d="M171 493L207 586L195 492Z" fill="#f4a23b" stroke="#f4a23b"></path><path d="M675 343L675 289L624 342Z" fill="#e38a39" stroke="#e38a39"></path><path d="M581 268L624 221L520 254Z" fill="#fcaf3c" stroke="#fcaf3c"></path><path d="M330 688L362 711L380 639Z" fill="#e08639" stroke="#e08639"></path><path d="M461 699L415 761L489 699Z" fill="#ec963a" stroke="#ec963a"></path><path d="M639 664L675 601L568 617Z" fill="#e9923a" stroke="#e9923a"></path><path d="M568 617L675 601L568 537Z" fill="#e08639" stroke="#e08639"></path><path d="M675 262L624 221L581 268Z" fill="#f7a73b" stroke="#f7a73b"></path><path d="M344 156L409 255L432 225Z" fill="#fcaf3c" stroke="#fcaf3c"></path><path d="M344 156L335 263L409 255Z" fill="#ec963a" stroke="#ec963a"></path><path d="M675 289L675 262L581 268Z" fill="#faab3c" stroke="#faab3c"></path><path d="M314 181L249 213L335 263Z" fill="#faab3c" stroke="#faab3c"></path><path d="M220 286L149 310L189 350Z" fill="#f4a23b" stroke="#f4a23b"></path><path d="M414 114L344 156L432 225Z" fill="#fcaf3c" stroke="#fcaf3c"></path><path d="M314 181L224 181L249 213Z" fill="#ef9a3a" stroke="#ef9a3a"></path><path d="M582 744L639 664L568 617Z" fill="#f4a23b" stroke="#f4a23b"></path><path d="M99 454L134 483L211 417Z" fill="#ef9a3a" stroke="#ef9a3a"></path><path d="M171 493L137 604L207 586Z" fill="#f29e3a" stroke="#f29e3a"></path><path d="M137 604L204 644L207 586Z" fill="#f7a73b" stroke="#f7a73b"></path><path d="M207 586L204 644L316 585Z" fill="#f7a73b" stroke="#f7a73b"></path><path d="M330 688L276 738L362 711Z" fill="#faab3c" stroke="#faab3c"></path><path d="M187 197L149 310L220 286Z" fill="#f4a23b" stroke="#f4a23b"></path><path d="M189 350L99 454L211 417Z" fill="#f7a73b" stroke="#f7a73b"></path><path d="M400 811L415 761L362 711Z" fill="#e9923a" stroke="#e9923a"></path><path d="M362 711L415 761L461 699Z" fill="#e08639" stroke="#e08639"></path><path d="M489 699L582 744L568 617Z" fill="#e68e39" stroke="#e68e39"></path><path d="M624 221L499 123L520 254Z" fill="#e68e39" stroke="#e68e39"></path><path d="M481 115L414 114L432 225Z" fill="#e08639" stroke="#e08639"></path><path d="M499 123L481 115L432 225Z" fill="#e9923a" stroke="#e9923a"></path><path d="M557 785L582 744L489 699Z" fill="#e9923a" stroke="#e9923a"></path><path d="M675 754L675 679L639 664Z" fill="#faab3c" stroke="#faab3c"></path><path d="M639 664L675 679L675 601Z" fill="#fcaf3c" stroke="#fcaf3c"></path><path d="M285 51L224 181L314 181Z" fill="#fcaf3c" stroke="#fcaf3c"></path><path d="M249 213L187 197L220 286Z" fill="#faab3c" stroke="#faab3c"></path><path d="M146 167L224 181L202 55Z" fill="#f29e3a" stroke="#f29e3a"></path><path d="M204 644L276 738L330 688Z" fill="#f4a23b" stroke="#f4a23b"></path><path d="M51 380L99 454L189 350Z" fill="#f4a23b" stroke="#f4a23b"></path><path d="M134 483L137 604L171 493Z" fill="#e9923a" stroke="#e9923a"></path><path d="M72 500L137 604L134 483Z" fill="#fcaf3c" stroke="#fcaf3c"></path><path d="M204 644L187 731L276 738Z" fill="#ec963a" stroke="#ec963a"></path><path d="M675 128L627 146L624 221Z" fill="#f7a73b" stroke="#f7a73b"></path><path d="M624 221L627 146L499 123Z" fill="#fcaf3c" stroke="#fcaf3c"></path><path d="M499 123L519 74L481 115Z" fill="#fcaf3c" stroke="#fcaf3c"></path><path d="M224 181L187 197L249 213Z" fill="#ef9a3a" stroke="#ef9a3a"></path><path d="M0 431L72 500L99 454Z" fill="#e38a39" stroke="#e38a39"></path><path d="M415 761L557 785L489 699Z" fill="#e9923a" stroke="#e9923a"></path><path d="M582 744L675 754L639 664Z" fill="#e38a39" stroke="#e38a39"></path><path d="M475 844L557 785L415 761Z" fill="#f4a23b" stroke="#f4a23b"></path><path d="M557 785L559 785L582 744Z" fill="#ef9a3a" stroke="#ef9a3a"></path><path d="M137 604L152 675L204 644Z" fill="#f4a23b" stroke="#f4a23b"></path><path d="M99 631L152 675L137 604Z" fill="#f4a23b" stroke="#f4a23b"></path><path d="M51 380L189 350L149 310Z" fill="#faab3c" stroke="#faab3c"></path><path d="M99 454L72 500L134 483Z" fill="#f4a23b" stroke="#f4a23b"></path><path d="M288 833L400 811L276 738Z" fill="#f7a73b" stroke="#f7a73b"></path><path d="M276 738L400 811L362 711Z" fill="#faab3c" stroke="#faab3c"></path><path d="M568 900L639 853L559 785Z" fill="#f4a23b" stroke="#f4a23b"></path><path d="M627 146L519 74L499 123Z" fill="#e9923a" stroke="#e9923a"></path><path d="M481 115L472 56L414 114Z" fill="#faab3c" stroke="#faab3c"></path><path d="M285 51L314 181L344 156Z" fill="#ef9a3a" stroke="#ef9a3a"></path><path d="M152 675L187 731L204 644Z" fill="#fcaf3c" stroke="#fcaf3c"></path><path d="M519 74L472 56L481 115Z" fill="#e08639" stroke="#e08639"></path><path d="M224 181L146 167L187 197Z" fill="#f7a73b" stroke="#f7a73b"></path><path d="M72 500L99 631L137 604Z" fill="#ec963a" stroke="#ec963a"></path><path d="M152 675L54 754L187 731Z" fill="#e9923a" stroke="#e9923a"></path><path d="M187 731L243 778L276 738Z" fill="#ef9a3a" stroke="#ef9a3a"></path><path d="M675 262L675 128L624 221Z" fill="#f4a23b" stroke="#f4a23b"></path><path d="M627 146L605 57L519 74Z" fill="#faab3c" stroke="#faab3c"></path><path d="M519 74L494 0L472 56Z" fill="#faab3c" stroke="#faab3c"></path><path d="M58 290L51 380L149 310Z" fill="#e08639" stroke="#e08639"></path><path d="M639 853L675 754L582 744Z" fill="#e38a39" stroke="#e38a39"></path><path d="M285 51L344 156L414 114Z" fill="#faab3c" stroke="#faab3c"></path><path d="M187 197L86 222L149 310Z" fill="#f7a73b" stroke="#f7a73b"></path><path d="M99 631L93 650L152 675Z" fill="#faab3c" stroke="#faab3c"></path><path d="M0 642L93 650L99 631Z" fill="#f29e3a" stroke="#f29e3a"></path><path d="M0 561L99 631L72 500Z" fill="#faab3c" stroke="#faab3c"></path><path d="M400 811L475 844L415 761Z" fill="#f29e3a" stroke="#f29e3a"></path><path d="M559 785L639 853L582 744Z" fill="#fcaf3c" stroke="#fcaf3c"></path><path d="M432 900L475 844L400 811Z" fill="#faab3c" stroke="#faab3c"></path><path d="M86 222L58 290L149 310Z" fill="#fcaf3c" stroke="#fcaf3c"></path><path d="M107 185L86 222L187 197Z" fill="#f4a23b" stroke="#f4a23b"></path><path d="M675 81L605 57L627 146Z" fill="#fcaf3c" stroke="#fcaf3c"></path><path d="M416 0L414 114L472 56Z" fill="#e68e39" stroke="#e68e39"></path><path d="M355 0L285 51L414 114Z" fill="#f29e3a" stroke="#f29e3a"></path><path d="M123 114L107 185L146 167Z" fill="#faab3c" stroke="#faab3c"></path><path d="M146 167L107 185L187 197Z" fill="#ec963a" stroke="#ec963a"></path><path d="M218 839L288 833L243 778Z" fill="#fcaf3c" stroke="#fcaf3c"></path><path d="M243 778L288 833L276 738Z" fill="#ef9a3a" stroke="#ef9a3a"></path><path d="M218 839L243 778L187 731Z" fill="#f4a23b" stroke="#f4a23b"></path><path d="M675 128L675 81L627 146Z" fill="#ef9a3a" stroke="#ef9a3a"></path><path d="M0 346L0 431L51 380Z" fill="#e9923a" stroke="#e9923a"></path><path d="M51 380L0 431L99 454Z" fill="#ef9a3a" stroke="#ef9a3a"></path><path d="M494 0L416 0L472 56Z" fill="#f7a73b" stroke="#f7a73b"></path><path d="M625 0L494 0L605 57Z" fill="#e68e39" stroke="#e68e39"></path><path d="M605 57L494 0L519 74Z" fill="#f7a73b" stroke="#f7a73b"></path><path d="M416 0L355 0L414 114Z" fill="#f7a73b" stroke="#f7a73b"></path><path d="M0 333L51 380L58 290Z" fill="#e68e39" stroke="#e68e39"></path><path d="M0 333L0 346L51 380Z" fill="#f7a73b" stroke="#f7a73b"></path><path d="M0 333L58 290L0 221Z" fill="#e9923a" stroke="#e9923a"></path><path d="M0 221L58 290L86 222Z" fill="#e38a39" stroke="#e38a39"></path><path d="M285 51L202 55L224 181Z" fill="#e38a39" stroke="#e38a39"></path><path d="M226 0L202 55L285 51Z" fill="#f4a23b" stroke="#f4a23b"></path><path d="M202 55L123 114L146 167Z" fill="#ef9a3a" stroke="#ef9a3a"></path><path d="M0 187L0 221L86 222Z" fill="#f7a73b" stroke="#f7a73b"></path><path d="M0 431L0 561L72 500Z" fill="#ef9a3a" stroke="#ef9a3a"></path><path d="M54 754L152 675L93 650Z" fill="#e38a39" stroke="#e38a39"></path><path d="M131 838L218 839L187 731Z" fill="#ec963a" stroke="#ec963a"></path><path d="M392 900L432 900L400 811Z" fill="#f29e3a" stroke="#f29e3a"></path><path d="M541 900L557 785L475 844Z" fill="#fcaf3c" stroke="#fcaf3c"></path><path d="M568 900L559 785L557 785Z" fill="#f4a23b" stroke="#f4a23b"></path><path d="M392 900L400 811L288 833Z" fill="#f29e3a" stroke="#f29e3a"></path><path d="M269 900L392 900L288 833Z" fill="#e68e39" stroke="#e68e39"></path><path d="M0 561L0 586L99 631Z" fill="#f7a73b" stroke="#f7a73b"></path><path d="M355 0L283 0L285 51Z" fill="#e9923a" stroke="#e9923a"></path><path d="M432 900L541 900L475 844Z" fill="#f29e3a" stroke="#f29e3a"></path><path d="M639 853L675 848L675 754Z" fill="#e38a39" stroke="#e38a39"></path><path d="M675 900L675 848L639 853Z" fill="#faab3c" stroke="#faab3c"></path><path d="M541 900L568 900L557 785Z" fill="#fcaf3c" stroke="#fcaf3c"></path><path d="M675 81L625 0L605 57Z" fill="#e9923a" stroke="#e9923a"></path><path d="M0 586L0 642L99 631Z" fill="#ec963a" stroke="#ec963a"></path><path d="M283 0L226 0L285 51Z" fill="#e9923a" stroke="#e9923a"></path><path d="M49 0L63 108L123 114Z" fill="#faab3c" stroke="#faab3c"></path><path d="M252 900L288 833L218 839Z" fill="#ef9a3a" stroke="#ef9a3a"></path><path d="M252 900L269 900L288 833Z" fill="#f29e3a" stroke="#f29e3a"></path><path d="M63 108L107 185L123 114Z" fill="#e9923a" stroke="#e9923a"></path><path d="M0 187L86 222L107 185Z" fill="#f7a73b" stroke="#f7a73b"></path><path d="M127 900L252 900L218 839Z" fill="#ef9a3a" stroke="#ef9a3a"></path><path d="M0 642L54 754L93 650Z" fill="#ec963a" stroke="#ec963a"></path><path d="M675 81L675 0L625 0Z" fill="#e08639" stroke="#e08639"></path><path d="M166 0L123 114L202 55Z" fill="#fcaf3c" stroke="#fcaf3c"></path><path d="M54 754L131 838L187 731Z" fill="#e08639" stroke="#e08639"></path><path d="M63 108L0 187L107 185Z" fill="#fcaf3c" stroke="#fcaf3c"></path><path d="M568 900L675 900L639 853Z" fill="#faab3c" stroke="#faab3c"></path><path d="M226 0L166 0L202 55Z" fill="#f7a73b" stroke="#f7a73b"></path><path d="M0 642L0 746L54 754Z" fill="#f29e3a" stroke="#f29e3a"></path><path d="M48 859L127 900L131 838Z" fill="#e08639" stroke="#e08639"></path><path d="M48 859L131 838L54 754Z" fill="#e9923a" stroke="#e9923a"></path><path d="M131 838L127 900L218 839Z" fill="#f4a23b" stroke="#f4a23b"></path><path d="M49 0L0 94L63 108Z" fill="#faab3c" stroke="#faab3c"></path><path d="M63 108L0 94L0 187Z" fill="#e68e39" stroke="#e68e39"></path><path d="M0 746L0 808L54 754Z" fill="#f4a23b" stroke="#f4a23b"></path><path d="M0 808L48 859L54 754Z" fill="#ec963a" stroke="#ec963a"></path><path d="M166 0L49 0L123 114Z" fill="#fcaf3c" stroke="#fcaf3c"></path><path d="M0 900L46 900L48 859Z" fill="#e08639" stroke="#e08639"></path><path d="M48 859L46 900L127 900Z" fill="#faab3c" stroke="#faab3c"></path><path d="M49 0L0 0L0 94Z" fill="#f7a73b" stroke="#f7a73b"></path><path d="M0 808L0 900L48 859Z" fill="#fcaf3c" stroke="#fcaf3c"></path></g></svg>