<svg id="visual" viewBox="0 0 675 900" width="675" height="900" xmlns="http://www.w3.org/2000/svg" xmlns:xlink="http://www.w3.org/1999/xlink" version="1.1"><rect x="0" y="0" width="675" height="900" fill="#e08639"></rect><defs><linearGradient id="grad1_0" x1="0%" y1="0%" x2="100%" y2="100%"><stop offset="30%" stop-color="#e08639" stop-opacity="1"></stop><stop offset="70%" stop-color="#e08639" stop-opacity="1"></stop></linearGradient></defs><defs><linearGradient id="grad2_0" x1="0%" y1="0%" x2="100%" y2="100%"><stop offset="30%" stop-color="#e08639" stop-opacity="1"></stop><stop offset="70%" stop-color="#e08639" stop-opacity="1"></stop></linearGradient></defs><g transform="translate(675, 0)"><path d="M0 450C-64.4 449.2 -128.7 448.4 -172.2 415.7C-215.7 383.1 -238.2 318.6 -273.7 273.7C-309.1 228.7 -357.4 203.4 -389 161.1C-420.5 118.8 -435.2 59.4 -450 0L0 0Z" fill="#FBAE3C"></path></g><g transform="translate(0, 900)"><path d="M0 -450C51.2 -428.1 102.3 -406.2 161.1 -389C219.9 -371.7 286.2 -359 318.2 -318.2C350.2 -277.4 347.8 -208.5 364 -150.8C380.2 -93.1 415.1 -46.5 450 0L0 0Z" fill="#FBAE3C"></path></g></svg>