<?xml version="1.0" encoding="utf-8"?>
<!-- Generator: Adobe Illustrator 26.0.1, SVG Export Plug-In . SVG Version: 6.00 Build 0)  -->
<svg version="1.1" id="Layer_1" xmlns="http://www.w3.org/2000/svg" xmlns:xlink="http://www.w3.org/1999/xlink" x="0px" y="0px"
	 viewBox="0 0 300 200" style="enable-background:new 0 0 300 200;" xml:space="preserve">
<style type="text/css">
	.st0{fill:#FFFFFF;}
	.st1{fill:#193B4C;}
	.st2{fill:#EE801C;}
	.st3{fill:#EE801E;}
	.st4{fill:#ED801C;}
	.st5{fill:#EE801B;}
	.st6{fill:#EF801C;}
	.st7{fill:#EF801B;}
	.st8{fill:#050505;}
	.st9{fill:#FEFEFE;}
	.st10{fill:#FCFCFC;}
	.st11{fill:#9E9E9E;}
	.st12{fill:#9F9F9F;}
	.st13{fill:#F5F5F6;}
	.st14{fill:#A0A0A0;}
	.st15{fill:#A1A1A1;}
	.st16{fill:#49494A;}
	.st17{fill:#3F4140;}
	.st18{fill:#CBCBCC;}
	.st19{fill:#1E201F;}
	.st20{fill:#333333;}
	.st21{fill:#21100E;}
	.st22{fill:#303030;}
	.st23{fill:#3E3B43;}
	.st24{fill:#CBCBCB;}
	.st25{fill:#F1F1F1;}
	.st26{fill:#656566;}
	.st27{fill:#3B3B3B;}
	.st28{fill:#4A4A4A;}
	.st29{fill:none;}
</style>
<g>
	<path class="st0" d="M22.33,124.93c-1.33,0-2.49-0.54-3.29-1.51c-0.63-0.78-1.29-2.19-0.82-4.45c2.37-11.4,4.77-22.79,7.17-34.19
		c0.31-1.49,1.14-5.44,5.72-6.09c0.12-0.05,0.35-0.18,0.53-0.28c2.25-1.24,5.42-3.49,8.12-3.19c0.93,0.11,1.81,0.53,2.5,1.17
		c2.36,2.22,1.34,5.52,0.65,7.71c-0.17,0.55-0.33,1.07-0.43,1.49c-0.38,1.7-0.72,3.45-1.05,5.15c2.24-1.1,2.98-2.32,2.99-4.44
		c0.02-5.58,2.77-9.7,7.77-11.6l0.08-0.03c0.28-0.1,0.34-0.13,0.53-0.23c0.2-0.1,0.42-0.22,0.8-0.39l0.22-0.1l0.24-0.06
		c1.32-0.35,2.02-0.71,3-1.21c0.61-0.31,1.3-0.66,2.19-1.03l1.85-0.76c1.2-0.5,2.51,0.41,2.46,1.71l-0.07,2
		c-0.21,5.83-1.53,11.16-2.8,16.31c-0.24,0.97-0.48,1.95-0.71,2.92c-0.8,3.34-3.78,4.46-5.71,5.21c3.69,2.91,4.66,6.91,2.74,11.47
		c0,0.04,0,0.08-0.01,0.12c-0.02,0.29-0.04,0.59-0.09,0.87c-0.89,5.44-2.36,10.76-9.47,10.76c-1.37,0-2.99-0.18-5.23-0.57
		c-1.61-0.28-2.81-0.99-3.56-2.09c-1.14-1.68-0.75-3.61-0.62-4.25c0.56-2.75,1.01-5.05,1.41-7.22c0.02-0.11,0.05-0.25,0.07-0.39
		c-0.49-0.36-0.95-0.75-1.39-1.14c0.87,0.78-1.06,5.93-1.29,6.89c-0.65,2.66-0.82,5.87-3.64,7.18c-2.75,1.27-5.59,2.58-8.5,3.76
		C23.86,124.76,23.07,124.93,22.33,124.93z"/>
	<path class="st2" d="M54.85,76.86c2.56-0.68,3.44-1.49,5.57-2.37c-0.23,6.58-1.99,12.6-3.43,18.63c-0.59,2.48-3.79,2.76-5.81,3.97
		c-2.13,1.27-2.25,2.23-0.16,3.45c3.62,2.11,4.83,5.01,3.09,8.96c-0.2,0.45-0.13,1-0.22,1.51c-1.3,7.94-3.04,9.09-11.15,7.67
		c-1.78-0.31-2-1.24-1.71-2.71c0.49-2.42,0.97-4.85,1.42-7.28c0.22-1.18,0.42-2.37-0.85-3.23c-1.68-1.13-3.58-3.47-4.92-3.18
		c-2.08,0.46-1.18,4.21-2.05,5.94c-0.9,1.79-1.44,3.72-1.27,5.71c0.17,1.93-0.16,3.34-1.46,3.94c-2.77,1.28-5.54,2.55-8.37,3.7
		c-1.86,0.75-2.71-0.05-2.31-1.99c2.37-11.4,4.77-22.79,7.16-34.18c0.38-1.8,0.95-3.39,3.21-3.69c0.96-0.13,1.81-0.93,2.77-1.2
		c2.04-0.58,4.34-3.19,5.76-1.91c1.33,1.2-0.16,4.16-0.64,6.33c-0.55,2.47-1.01,4.97-1.51,7.46c-0.17,0.87-0.54,1.87,0.3,2.48
		c0.67,0.49,1.43-0.13,2.14-0.39c3.9-1.4,7.04-3.25,7.05-8.16c0.01-4.02,1.78-7.21,5.8-8.75C54.09,77.29,54.09,77.2,54.85,76.86z"/>
	<path class="st0" d="M50.73,124.59c-0.6-3.21,0.14-5.88,0.8-8.24c0.23-0.81,0.44-1.58,0.58-2.3c0.94-4.96,2-9.96,3.04-14.8
		c1.17-5.49,2.38-11.16,3.39-16.75c0.6-3.31,2.15-7.7,8.6-7.7c0.32,0,0.66,0.01,1.02,0.03c1.65,0.09,3.43,0.13,5.43,0.13
		c2.5,0,5.07-0.07,7.56-0.13c1.97-0.05,3.94-0.1,5.9-0.12l0.12,0c2.6,0,4.81,0.94,6.21,2.66c1.39,1.7,1.88,4.02,1.37,6.53
		c-0.13,0.64-0.27,1.28-0.41,1.91c-0.35,1.56-0.68,3.03-0.8,4.46c-0.31,3.51-1.85,6.15-4.58,7.87c2.2,1.93,2.22,4.32,1.78,6.1
		c-0.87,3.49-1.54,7.12-2.19,10.63l-0.13,0.71c-0.78,4.14-3.12,6.23-6.97,6.23l0,0c-0.25,0-0.52-0.01-0.8-0.03
		c-1.57-0.11-3.27-0.16-5.36-0.16c-1.35,0-2.7,0.02-4.05,0.04c-1.38,0.02-2.76,0.04-4.14,0.04h-1.8l-0.23-0.42
		c-3.19,2.35-6.7,4.02-10.06,5.54l-3.56,1.6L50.73,124.59z M70.56,106.41c0.62,0,1.2,0.05,1.72,0.09c0.34,0.03,0.68,0.06,1.02,0.06
		l0.11,0c0.15,0,0.26-0.01,0.33-0.02c0.08-0.17,0.2-0.52,0.38-1.25c0.02-0.08,0.03-0.15,0.04-0.21c-0.11-0.06-0.27-0.13-0.48-0.23
		l-0.17-0.07c-1.08-0.46-2.19-0.93-2.99-1.22c-0.16,0.76-0.32,1.8-0.49,2.86C70.19,106.41,70.37,106.41,70.56,106.41z M75.49,89.96
		c-0.79,0-1.47,0.02-2.03,1.05c0.4-0.2,0.8-0.41,1.2-0.62C74.94,90.24,75.21,90.1,75.49,89.96z"/>
	<path class="st3" d="M87.08,77.77c-6.36,0.07-12.75,0.46-19.09,0.12c-4.15-0.23-5.69,1.11-6.43,5.16
		c-1.92,10.57-4.44,21.02-6.44,31.57c-0.56,2.96-2.04,5.88-1.38,9.4c4.01-1.81,7.62-3.58,10.77-6.2c0.8-3.32,0.7-6.85,2.36-9.97
		c0.02-0.51-0.02-1.02,0.06-1.52c1.13-7.26,1.11-7.2,7.95-4.3c1.94,0.83,2.75,1.72,2.21,3.96c-0.53,2.22-1.14,3.69-3.87,3.62
		c-1.82-0.05-3.82-0.57-5.53,0.65c0.37,2.83-2.21,5.44-0.59,8.36c4.59,0,9.19-0.23,13.76,0.08c3.02,0.21,4.06-1.13,4.54-3.7
		c0.71-3.85,1.41-7.72,2.36-11.53c0.47-1.89-0.26-2.85-1.71-3.68c-2.32-1.32-2.09-2.69,0.15-3.69c2.74-1.22,4.02-3.18,4.28-6.14
		c0.2-2.25,0.81-4.48,1.26-6.71C92.42,79.95,90.56,77.73,87.08,77.77z M79.04,91.65c-3.07,1.33-5.87,3.34-9.42,4.03
		c-0.05-0.65-0.2-1.15-0.13-1.62c0.96-6.53,3.37-8.15,9.79-6.67c0.64,0.15,1.27,0.18,1.3,1.02C80.64,89.77,80.34,91.09,79.04,91.65z
		"/>
	<path class="st0" d="M85.21,111.66c2-9.59,3.9-18.64,5.77-27.81c0.8-3.92,4.01-4.94,5.73-5.48c0.25-0.08,0.51-0.16,0.75-0.25
		c0.46-0.17,1.11-0.56,1.73-0.94c1.44-0.87,3.08-1.86,4.98-1.86c1.08,0,2.11,0.33,2.98,0.96c3.19,2.3,1.8,5.91,1.13,7.64
		c-0.22,0.58-0.53,1.36-0.54,1.71c-0.07,1.8-0.48,3.42-0.87,5c0,0.01-0.01,0.02-0.01,0.04c2.7-1.51,3.32-3.58,3.27-6.2
		c-0.13-6.9,5.86-8.83,7.83-9.46c0.81-0.26,1.65-0.64,2.53-1.05c0.45-0.21,0.9-0.41,1.35-0.6l3.8-1.63l0.46,4.11
		c0.28,2.55-0.84,4.51-1.66,5.95c-0.5,0.88-0.94,1.64-0.9,2.19l0.04,0.56l-0.16,0.54c-0.21,0.72-0.46,1.44-0.7,2.16
		c-0.92,2.69-1.46,4.43-0.86,6.29l0.21,0.65l-0.48,3.64c0,0-1.9,1.06-2.19,1.22c0.26,0.21,0.52,0.4,0.73,0.57
		c3.11,2.42,4.05,5.3,2.88,8.8c-0.62,1.84-1.32,3.92-1.32,5.71c-0.02,5.13-2.77,7.72-8.17,7.72c-0.28,0-0.57,0-0.86-0.01l-0.27-0.01
		c-4.11-0.12-6.6-0.19-8.16-2.25c-1.59-2.1-0.92-4.77,0-8.45c0.58-2.33,0.44-3.58-0.77-4.7c-0.08,0.39-0.16,0.77-0.24,1.16
		c-0.45,2.2-0.88,4.28-1.13,6.37c-0.51,4.19-2.6,6.85-6.39,8.11c-1.74,0.58-3.45,1.31-5.44,2.16c-0.96,0.41-1.96,0.84-3.04,1.28
		l-5.34,2.19L85.21,111.66z"/>
	<path class="st4" d="M123.06,76.16c0.34,3.06-2.79,5.01-2.57,8.03c-0.99,3.35-2.72,6.58-1.55,10.25c-0.06,0.48-0.13,0.95-0.19,1.43
		c-4.78,2.65-4.86,2.76-0.51,6.14c1.97,1.53,2.66,3,1.85,5.41c-0.72,2.16-1.47,4.44-1.48,6.67c-0.02,4.32-2.35,4.76-5.88,4.66
		c-6.96-0.2-7.25-0.12-5.54-6.9c1.06-4.21,0.14-6.87-3.56-9.06c-1.8-1.06-2.44-0.91-2.81,1.04c-0.61,3.25-1.4,6.47-1.8,9.74
		c-0.34,2.84-1.53,4.64-4.32,5.57c-2.72,0.91-5.34,2.15-8.67,3.51c2.76-13.25,5.39-25.71,7.94-38.19c0.53-2.57,2.81-2.83,4.54-3.47
		c2.32-0.86,4.92-3.62,6.84-2.24c1.99,1.44-0.59,4.39-0.68,6.75c-0.13,3.26-1.71,6.33-1.57,9.71c5.96-1.36,10.22-4.06,10.1-10.82
		c-0.07-3.87,2.48-5.45,5.71-6.49C120.33,77.45,121.68,76.75,123.06,76.16z"/>
	<path class="st0" d="M126.96,124.86c-1.38-1.73-3.59-1.73-4.41-1.73h-0.08c-6.92,0.04-13.85,0.05-20.77,0.05
		c-4.15,0.01-8.29,0.02-12.45,0.02c-4.59,0.02-8.21,2.77-9.44,7.17c-1.62,5.77-2.71,11.69-3.47,16.2l-0.06,0.36
		c-0.13,0.78-0.34,2.08-0.59,2.44c-0.06,0.02-0.21,0.05-0.46,0.05c-0.44,0-1.01-0.08-1.69-0.25c-2.51-0.61-5.38-1.74-7.91-1.77
		c3.27,7.51,10.65,12.87,14.65,20.05c4.57,8.21,10.63,12.21,18.5,12.21c4.55,0,10.71,0.3,14.87-1.77c3.6-1.79,4.93-5.74,5.73-9.42
		c0.99-4.58,1.95-9.15,2.92-13.73c1.73-8.16,3.52-16.61,5.35-24.88C127.86,128.89,128.37,126.61,126.96,124.86z M103.36,148.15
		l-0.3,1.4l-0.05,0.24c-0.79,3.73-1.52,7.36-2.22,10.92l-8.21,0.01c0.14-0.11,0.28-0.22,0.41-0.33c2.14-1.71,4.35-3.48,6.3-5.99
		l2.3-2.95c0.14-0.18,0.23-0.4,0.26-0.63c0.02-0.12,0.03-0.24,0.03-0.36c0.03-0.71-0.57-1.28-1.27-1.24l-3.83,0.23
		c0.1-0.44,0.13-0.83,0.15-1.11c0.01-0.06,0.02-0.12,0.02-0.18c1.3-7.07,1.3-7.07,3.98-7.07c1.03,0,2.34,0.09,3.92,0.21
		C104.33,143.63,103.83,145.92,103.36,148.15z"/>
	<path class="st5" d="M122.48,126.19c-11.07,0.06-22.14,0.05-33.21,0.08c-3.39,0.02-5.69,2.01-6.51,4.93
		c-1.46,5.2-2.5,10.54-3.4,15.88c-0.56,3.33-0.86,6.45-6.54,5.07c3.91,5.24,7.58,9.21,10.13,13.8c4.57,8.22,10.88,12.05,20.32,10.17
		c0.97-0.19,2.03-0.02,3.05-0.02c6.66,0.01,8.62-1.56,10.06-8.28c2.77-12.88,5.42-25.78,8.28-38.64
		C125.16,126.94,124.79,126.18,122.48,126.19z M108.07,140.94c-1.52,6.78-2.96,13.58-4.29,20.4c-0.34,1.72-1.13,2.44-2.77,2.44
		c-5.07,0.01-10.13,0-15.93,0c3.36-4.62,8.25-6.69,11.79-11.26c-3.13,0.19-4.42-0.69-3.19-3.42c0.2-0.44,0.16-1,0.25-1.49
		c1.83-9.92,2.14-10.11,12.29-9.26C108.22,138.5,108.47,139.16,108.07,140.94z"/>
	<path class="st0" d="M5.99,182.83c0.47-2.33,0.92-4.57,1.35-6.74c0.92-4.6,1.78-8.95,2.7-13.28c0.84-3.96,1.69-7.92,2.55-11.88
		c1.55-7.17,3.16-14.59,4.61-21.89c0.8-4.03,3.1-5.9,7.24-5.9h0.12c7.47,0.05,14.89,0.06,21.17,0.06l14.26,0c3.1,0,6.19,0,9.29,0.01
		c2.28,0,5.53,0.29,7.55,2.75c1.5,1.83,1.9,4.38,1.23,7.8c-1.4,7.09-2.92,14.27-4.4,21.22c-0.73,3.47-1.47,6.94-2.19,10.42
		c-0.4,1.93-1.52,3.41-3.32,4.39c-2.34,1.27-4.67,2.56-7.01,3.85c-1.78,0.98-3.57,1.97-5.35,2.94l-0.19,0.11
		c-0.56,0.32-1.5,0.87-2.73,0.87c-0.96,0-1.86-0.33-2.61-0.96c-2.07-1.72-1.41-4.09-1.2-4.87c0.02-0.09,0.05-0.18,0.07-0.26
		l0.13-0.62c0.21-0.97-0.84-1.69-1.7-1.18c-0.2,0.12-0.41,0.24-0.63,0.35c-1.84,0.93-3.62,2.02-5.5,3.17
		c-2.9,1.76-5.89,3.59-9.48,5.12l-1,0.43c-1.86,0.8-3.85-0.83-3.43-2.81l0,0c-0.43,0.54-0.99,1.04-1.7,1.46
		c-3.55,2.04-7.11,4.06-10.99,6.28l-4.32,2.46C8.23,187.4,5.47,185.41,5.99,182.83L5.99,182.83z"/>
	<path class="st6" d="M30.75,175.47c1.53-7.28,2.89-13.81,4.27-20.32c1.08-5.08,2.24-10.15,3.3-15.23c0.22-1.06,1.33-2.78-0.94-2.81
		c-1.49-0.02-3.66-1.22-4.25,1.65c-1.22,5.82-2.6,11.61-3.85,17.43c-1.09,5.09-2.08,10.2-3.17,15.29c-0.26,1.23-0.58,2.53-1.81,3.23
		c-4.82,2.76-9.65,5.51-15.3,8.73c1.46-7.26,2.7-13.64,4.04-20c2.38-11.27,4.93-22.51,7.17-33.81c0.55-2.76,1.72-3.45,4.33-3.43
		c14.91,0.1,29.82,0.03,44.74,0.06c5.04,0.01,6.76,1.92,5.77,6.89c-2.09,10.56-4.39,21.07-6.58,31.6c-0.23,1.09-0.82,1.8-1.78,2.32
		c-4.13,2.25-8.24,4.53-12.36,6.79c-0.65,0.36-1.4,0.94-2.1,0.35c-0.67-0.56-0.26-1.37-0.1-2.12c2.27-10.38,4.53-20.76,6.7-31.16
		c0.28-1.34,1.85-3.4-1.02-3.88c-2.07-0.35-3.81-0.25-4.35,2.71c-1.41,7.72-3.25,15.36-4.82,23.06c-0.41,2-1.17,3.48-3.08,4.45
		C40.76,169.71,36.44,173.04,30.75,175.47z"/>
	<path class="st0" d="M249.27,130.56l0.25-1.14c0.08-0.36,0.34-0.65,0.7-0.77l1.11-0.36c2.43-0.78,4.79-0.92,7.07-1.05
		c1.92-0.11,3.74-0.22,5.4-0.71c2.12-0.63,4.57-1.48,6.69-2.98l0.54-0.38c0.18-0.13,0.39-0.19,0.61-0.19l5.86,0.08
		c2.59,0.03,5.19,0.07,7.78,0.11c3.86,0.07,5.97,1.66,7.07,2.98c1.03,1.24,2.14,3.44,1.56,6.81c-1.14,6.76-2.72,13.53-4.11,19.51
		c-0.86,3.68-3.98,4.79-5.84,5.45c-0.16,0.06-0.31,0.11-0.46,0.16c3.48,2.66,3.3,6.32,3.16,9.34l-0.04,0.76
		c-0.44,10.25-7.1,14.49-14.23,17.53c-0.59,0.25-1.14,0.39-1.62,0.52c-0.18,0.05-0.36,0.09-0.55,0.15l-2.05,0.61
		c-0.57,0.17-1.17-0.17-1.31-0.75l-0.5-2.08c-0.8-3.31,0.02-6.14,0.74-8.63c0.31-1.08,0.61-2.1,0.74-3.06
		c0.21-1.54,0.05-1.7-0.98-2.42c-1.71-1.2-3.34-2.46-5-3.79c-0.6-0.48-1.49-0.16-1.66,0.59c-0.48,2.19-0.93,4.3-1.28,6.41
		c-0.6,3.59-2.33,5.97-5.44,7.48c-2.4,1.16-4.73,2.48-7.43,4.02c-1.24,0.7-2.53,1.44-3.93,2.21l-0.83,0.46
		c-1.98,1.1-4.34-0.65-3.85-2.86C240.3,171.57,247.21,139.99,249.27,130.56z M266.66,140.78c-0.44-0.01-0.87,0.25-1.02,0.67
		c-0.04,0.12-0.09,0.24-0.15,0.36c-0.63,1.34-0.82,2.09,1.92,4.17c0.27,0.2,0.43,0.27,0.47,0.28c0.18-0.02,0.79-0.36,1.19-0.59
		c0.53-0.3,1.13-0.64,1.83-0.92c0.71-0.28,0.87-0.49,1.2-2.55c0.01-0.06,0.02-0.11,0.03-0.17c0.1-0.64-0.38-1.21-1.03-1.21
		c0,0-0.01,0-0.01,0c-1.23,0-2.46-0.02-3.69-0.03C267.15,140.79,266.91,140.78,266.66,140.78z"/>
	<path class="st5" d="M285.23,126.24c-4.33-0.07-8.65-0.11-12.97-0.18c-2.31,1.62-4.87,2.6-7.58,3.41
		c-4.08,1.22-8.38,0.44-12.41,1.74c-3.79,17.35-7.59,34.71-11.62,53.09c4.44-2.46,7.89-4.57,11.5-6.31
		c2.34-1.13,3.34-2.76,3.76-5.23c0.71-4.18,1.73-8.31,2.74-13.01c3.62,2.86,6.68,5.49,9.98,7.8c2.03,1.42,2.61,2.76,2.26,5.34
		c-0.47,3.47-2.45,6.74-1.53,10.56c0.64-0.19,1.26-0.31,1.83-0.54c6.64-2.84,12.01-6.35,12.38-14.84c0.15-3.61,0.57-6.31-3-8.22
		c-3.39-1.79-1.82-2.8,0.57-4.06c2.03-1.08,5.03-1.19,5.69-4c1.49-6.41,2.98-12.84,4.08-19.33
		C291.56,128.55,289.22,126.31,285.23,126.24z M275.71,140.25c-1.02,2.54-0.17,5.99-3.68,7.36c-2.11,0.84-3.74,2.9-6.48,0.81
		c-2.84-2.17-4.52-4.32-2.83-7.93c0.15-0.32,0.1-0.74,0.15-1.12c-0.8-3.3-3.89-5.11-5.11-8.22c3.22,1.2,4.69,4.23,6.84,6.54
		c3.03,0.02,6.08,0.11,9.1,0.03C275.65,137.68,276.38,138.57,275.71,140.25z"/>
	<path class="st0" d="M113.09,183.66c0.49-2.4,0.97-4.71,1.43-6.96c0.97-4.76,1.89-9.24,2.84-13.72c0.92-4.35,1.85-8.69,2.79-13.04
		c1.48-6.91,3.01-14.05,4.48-21.08l0.07-0.35c0.52-2.73,1.87-4.12,4.03-4.12c0.32,0,0.64,0.04,0.97,0.11
		c0.74-0.67,1.9-1.21,3.72-1.21c1.68,0,3.35,0.03,5.03,0.07c0.74,0.01,3.13,0.06,3.13,0.06l0.76,0.52c5.43,3.7,11.17,5.5,17.54,5.5
		c0.25,0,0.51,0,0.76-0.01c0.33-0.01,0.79-0.11,1.29-0.23c0.78-0.18,1.67-0.38,2.68-0.38c1.09,0,2.12,0.25,3.05,0.73l1,0.52
		l0.43,1.04c1.93,4.68-0.28,8.49-1.49,10.23c-0.14,0.61-0.29,1.22-0.44,1.83c-0.41,1.69-0.81,3.28-0.94,4.82
		c-0.44,5.12-2.77,8.39-7.34,10.23c1.72,1.27,5.08,4.29,2.82,9.68c-0.08,0.2-0.14,0.69-0.19,1.13c-0.08,0.69-0.18,1.54-0.49,2.42
		c-0.17,0.48-0.24,1.23-0.31,2.01c-0.2,2.05-0.46,4.85-3.03,6.59c-3.67,2.49-7.78,5.03-12.91,6.71l-2.7,0.89
		c-1.05,0.34-2.08-0.58-1.85-1.66l0.59-2.78c0.25-1.19,0.49-2.35,0.72-3.46c0.58-2.84,1.14-5.52,1.81-8.18
		c0.05-0.18,0.07-0.31,0.08-0.39c-0.02-0.01-0.04-0.03-0.06-0.05c-2.55-1.94-5.07-3.92-7.53-5.91c-0.3,1.39-0.62,2.77-0.92,4.13
		c-0.43,1.9-0.88,3.86-1.27,5.78c-0.29,1.48-0.9,3.33-3.02,4.52c-2.77,1.55-5.53,3.11-8.54,4.82l-6.77,3.82
		c-1.39,0.79-3.06-0.43-2.74-2L113.09,183.66z M141.25,140.82c-0.02,0.18-0.04,0.37-0.08,0.56l-0.09,0.53l-0.27,0.47
		c-0.55,0.96-0.73,1.28,1.2,3.12c0.48,0.46,0.92,0.72,1.19,0.72c0.51,0,1.5-0.62,2.37-1.17c0.2-0.13,0.41-0.26,0.62-0.39
		c0.61-0.61,1.48-2.57,1.81-3.91c-0.5,0.07-1.07,0.15-1.69,0.15c-0.27,0-0.54-0.02-0.8-0.05c-0.47-0.06-1.01-0.09-1.68-0.09
		c-0.52,0-1.03,0.02-1.55,0.03C141.94,140.81,141.59,140.82,141.25,140.82z"/>
	<path class="st5" d="M166.25,132.26c-1.89-0.97-3.69,0.18-5.55,0.22c-7.38,0.17-14.04-1.89-20.1-6.02
		c-2.4-0.04-4.79-0.11-7.19-0.11c-2.2,0-2.39,1.1-1.23,2.61c1.15,1.49,2.46,2.86,3.7,4.28c1.67,1.39,2.67,3.48,4.67,4.54
		c1.78,0,3.59-0.17,5.33,0.05c1.73,0.21,3.96-1.11,5.11,0.97c0.91,1.64-1.43,7.4-3.11,8.43c-2.55,1.56-4.84,3.49-7.99,0.51
		c-2.26-2.15-3.39-3.99-1.75-6.86c0.6-3.48-2.68-4.99-3.85-7.57c-1.8-1.56-3.35-3.32-4.44-5.46c-1.93-1.05-1.95,0.25-2.24,1.65
		c-2.38,11.39-4.85,22.75-7.26,34.13c-1.39,6.58-2.72,13.18-4.26,20.66c4.87-2.75,8.94-5.06,13.01-7.34
		c0.98-0.55,1.3-1.37,1.52-2.45c0.8-3.97,1.81-7.89,2.6-11.86c0.45-2.28,1.32-2.46,3.02-1.06c2.94,2.42,5.93,4.78,8.96,7.08
		c1.33,1,1.5,2.07,1.1,3.64c-0.92,3.62-1.61,7.31-2.51,11.53c4.76-1.56,8.55-3.9,12.15-6.34c2.12-1.44,1.35-4.71,2.17-7.07
		c0.41-1.19,0.28-2.57,0.75-3.72c1.2-2.87,0.21-4.61-2.23-6.33c-3.88-2.73-3.87-3.19,0.65-4.84c3.9-1.43,5.53-3.89,5.87-7.83
		c0.23-2.57,1.03-5.1,1.58-7.65C166.46,137.68,167.45,135.18,166.25,132.26z"/>
	<path class="st0" d="M211.61,186.04c-1.48,0-2.79-0.73-3.98-1.52l-0.22-0.15c-9.23-6.15-9.79-7.52-7.42-18.38
		c0.18-0.82,0.38-1.63,0.58-2.45c0.46-1.88,0.9-3.66,1.05-5.4c0.26-2.88,1.3-5.15,3.1-6.78c-0.92-1.95-0.5-3.88-0.23-5.15
		c0.06-0.28,0.12-0.56,0.16-0.84c0.42-2.9,1.12-5.7,1.81-8.41c0.75-2.99,1.47-5.81,1.81-8.71c0.38-3.28,2.64-5.24,6.03-5.24
		c1.23,0,2.67,0.25,4.4,0.77l1.02,0.31l0.61,0.88c2.35,3.38,5.44,4.95,9.72,4.95c0.85,0,1.77-0.06,2.72-0.19
		c3.77-0.5,7.6-0.92,11.31-1.32c1.63-0.18,3.26-0.35,4.89-0.54l4.18-0.47c0,0-2.54,12.67-3.4,16.95
		c-1.24,6.22-2.49,12.43-3.74,18.65c-0.47,2.35-0.97,4.7-1.47,7.04c-0.32,1.52-0.65,3.05-0.97,4.57l-0.05,0.28
		c-0.57,3.03-2.14,4.61-4.66,4.69c-2.03,0.06-4.08,0.1-6.1,0.1c-1.46,0-2.92-0.02-4.38-0.05c-1.97-0.05-3.02-0.92-3.56-1.64
		c-1.18-1.58-0.69-3.35-0.46-4.21c0.03-0.12,0.07-0.24,0.09-0.35c0.91-4.18,1.8-8.36,2.75-12.82c0.11-0.52,0.22-1.05,0.34-1.58
		c-2.59,1.21-5.08,2.38-7.52,3.57c-0.01,0.04-0.01,0.07-0.02,0.1c-0.04,0.25-0.07,0.49-0.12,0.73c-0.39,1.91-0.8,3.79-1.2,5.68
		c-0.83,3.89-1.7,7.91-2.4,11.86C215.49,185.16,213.31,186.04,211.61,186.04z M224.59,139.87c-0.11,0.44-0.21,1.16-0.28,1.67
		c0,0.03-0.01,0.06-0.01,0.09c1.33-0.67,2.68-1.35,4.03-2.02c-0.26-0.01-0.52-0.01-0.77-0.01
		C226.35,139.59,225.39,139.68,224.59,139.87z"/>
	<path class="st7" d="M233.15,132.77c-6.25,0.82-11.56-0.61-15.35-6.05c-4.12-1.23-6.19-0.72-6.5,1.89
		c-0.69,5.85-2.79,11.39-3.62,17.19c-0.24,1.67-1.08,3.47,0.36,5.05c0.18,0.06,0.34,0.1,0.51,0.13c0.02-0.08,0.2,0.03,0.22-0.05
		c3.8-1.83,7.45-3.86,11.26-5.69c0.26-0.57,0.57-1.12,0.77-1.71c0.74-2.24,0.29-5.82,2.37-6.46c3.15-0.97,6.78-0.34,10.22-0.38
		c0.96-0.01,1.32,0.58,1.34,1.47c0.03,1.34-0.72,2.05-1.85,2.61c-3.53,1.72-7.03,3.51-10.54,5.27c-4.43,1.85-8.38,4.73-13.02,6.12
		c-2.92,1.05-4.36,3.05-4.65,6.24c-0.25,2.78-1.09,5.5-1.69,8.24c-2.13,9.77-2.09,9.7,6.34,15.32c2.38,1.57,3.36,1.5,3.92-1.54
		c1.06-5.89,2.41-11.73,3.62-17.59c0.2-1,0.15-2.19,1.18-2.69c4.34-2.11,8.72-4.13,13.76-6.5c-1.61,7.53-2.97,13.98-4.37,20.44
		c-0.24,1.1-0.96,2.44,1,2.49c3.44,0.08,6.88,0.06,10.31-0.05c1.49-0.05,1.58-1.4,1.81-2.53c0.8-3.86,1.66-7.72,2.44-11.59
		c2.12-10.49,4.21-20.99,6.31-31.47C243.92,131.53,238.53,132.06,233.15,132.77z"/>
	<path class="st0" d="M167.51,179.79c-4.69-0.09-7.28-0.14-8.97-2.24c-1.7-2.11-1.2-4.71-0.28-9.44c1.22-6.26,2.45-12.51,3.68-18.75
		l1.59-8.08c0.09-0.68,0.12-1.42,0.16-2.19c0.14-2.78,0.31-6.24,3.09-9.14l0.7-0.73l1-0.17c1.52-0.25,3.04-1.06,4.66-1.9
		c2.39-1.26,5.1-2.69,8.49-2.7l1.24,0l0.89,0.86c2.78,2.67,1.85,5.77,1.35,7.44c-0.08,0.27-0.16,0.54-0.22,0.8
		c-0.32,1.35-0.05,1.72,0.62,2.23c1.5,1.14,2.59,2.49,3.65,3.79c0.08,0.09,0.15,0.19,0.23,0.28c0.05-0.29,0.1-0.59,0.15-0.9
		c0.16-0.96,0.32-1.96,0.58-2.98c0.54-2.14,0.91-3.86,1.21-5.24c1.02-4.74,1.7-7.86,7.4-7.86c0.61,0,1.32,0.02,2.16,0.05
		c1.11,0.04,2.49,0.08,4.15,0.08c0.76,0,1.58-0.01,2.48-0.03l0.11,0c1.59,0,2.98,0.93,3.64,2.43l0.39,0.9l-2.18,10.47
		c-1.63,7.84-3.27,15.68-4.92,23.52c-0.33,1.59-0.69,3.18-1.05,4.77c-0.65,2.9-1.33,5.89-1.83,8.83c-0.67,3.95-2.96,5.88-6.99,5.9
		c0,0-1.83,0.01-1.84,0.01c-3.54,0-6.59-0.01-8.36-2.22c-1.8-2.25-1.15-5.16-0.07-9.98c0.4-1.8,0.08-2.3-0.82-3.09
		c-1.77-1.56-3.46-3.13-5.22-4.77c-1.12,4.48-1.93,9.14-2.72,13.69c-0.76,4.36-3.12,6.37-7.43,6.37L167.51,179.79z"/>
	<path class="st5" d="M169,132.07c4.5-0.75,7.89-4.54,12.65-4.56c1.75,1.69,0.67,3.58,0.26,5.33c-0.52,2.22-0.11,3.95,1.75,5.37
		c2.62,1.99,4.04,5.19,7.06,7.21c1.73-2.75,1.65-5.85,2.38-8.7c3.48-13.68-0.01-10.29,14.51-10.69c0.4-0.01,0.69,0.22,0.86,0.6
		c-2.3,11.01-4.59,22.02-6.9,33.03c-0.96,4.57-2.12,9.11-2.9,13.72c-0.42,2.48-1.43,3.34-3.98,3.35c-9.05,0.04-9.19,0.1-7.28-8.46
		c0.58-2.61,0.14-4.36-1.78-6.06c-2.93-2.58-5.76-5.29-8.83-8.14c-1.94,6.07-3.05,12.49-4.16,18.87c-0.54,3.09-1.76,3.85-4.71,3.79
		c-8.2-0.16-8.22-0.04-6.66-8.06c1.75-8.97,3.52-17.93,5.29-26.9C167.01,138.45,166.35,134.84,169,132.07z"/>
	<path class="st8" d="M241.23,110.24C241.15,110.18,241.31,110.2,241.23,110.24L241.23,110.24z"/>
	<path class="st8" d="M244.88,124.87c-0.08,0.08-0.18,0.16-0.26,0.24c0.1-0.03,0.19-0.06,0.28-0.1c0.01-0.02,0.01-0.04,0.02-0.05
		C244.9,124.92,244.89,124.89,244.88,124.87z M244.88,124.87c-0.08,0.08-0.18,0.16-0.26,0.24c0.1-0.03,0.19-0.06,0.28-0.1
		c0.01-0.02,0.01-0.04,0.02-0.05C244.9,124.92,244.89,124.89,244.88,124.87z M225.82,125.98c0,0.01,0,0.02,0.01,0.03
		c0.01,0.02,0.02,0.04,0.04,0.05C225.85,126.05,225.83,126.02,225.82,125.98z M244.88,124.87c-0.08,0.08-0.18,0.16-0.26,0.24
		c0.1-0.03,0.19-0.06,0.28-0.1c0.01-0.02,0.01-0.04,0.02-0.05C244.9,124.92,244.89,124.89,244.88,124.87z M244.88,124.87
		c-0.08,0.08-0.18,0.16-0.26,0.24c0.1-0.03,0.19-0.06,0.28-0.1c0.01-0.02,0.01-0.04,0.02-0.05
		C244.9,124.92,244.89,124.89,244.88,124.87z M225.82,125.98c0,0.01,0,0.02,0.01,0.03c0.01,0.02,0.02,0.04,0.04,0.05
		C225.85,126.05,225.83,126.02,225.82,125.98z M225.82,125.98c0,0.01,0,0.02,0.01,0.03c0.01,0.02,0.02,0.04,0.04,0.05
		C225.85,126.05,225.83,126.02,225.82,125.98z M244.88,124.87c-0.08,0.08-0.18,0.16-0.26,0.24c0.1-0.03,0.19-0.06,0.28-0.1
		c0.01-0.02,0.01-0.04,0.02-0.05C244.9,124.92,244.89,124.89,244.88,124.87z M244.88,124.87c-0.08,0.08-0.18,0.16-0.26,0.24
		c0.1-0.03,0.19-0.06,0.28-0.1c0.01-0.02,0.01-0.04,0.02-0.05C244.9,124.92,244.89,124.89,244.88,124.87z M225.82,125.98
		c0,0.01,0,0.02,0.01,0.03c0.01,0.02,0.02,0.04,0.04,0.05C225.85,126.05,225.83,126.02,225.82,125.98z M225.82,125.98
		c0,0.01,0,0.02,0.01,0.03c0.01,0.02,0.02,0.04,0.04,0.05C225.85,126.05,225.83,126.02,225.82,125.98z M244.88,124.87
		c-0.08,0.08-0.18,0.16-0.26,0.24c0.1-0.03,0.19-0.06,0.28-0.1c0.01-0.02,0.01-0.04,0.02-0.05
		C244.9,124.92,244.89,124.89,244.88,124.87z M244.88,124.87c-0.08,0.08-0.18,0.16-0.26,0.24c0.1-0.03,0.19-0.06,0.28-0.1
		c0.01-0.02,0.01-0.04,0.02-0.05C244.9,124.92,244.89,124.89,244.88,124.87z M225.82,125.98c0,0.01,0,0.02,0.01,0.03
		c0.01,0.02,0.02,0.04,0.04,0.05C225.85,126.05,225.83,126.02,225.82,125.98z M225.82,125.98c0,0.01,0,0.02,0.01,0.03
		c0.01,0.02,0.02,0.04,0.04,0.05C225.85,126.05,225.83,126.02,225.82,125.98z M244.88,124.87c-0.08,0.08-0.18,0.16-0.26,0.24
		c0.1-0.03,0.19-0.06,0.28-0.1c0.01-0.02,0.01-0.04,0.02-0.05C244.9,124.92,244.89,124.89,244.88,124.87z M244.88,124.87
		c-0.08,0.08-0.18,0.16-0.26,0.24c0.1-0.03,0.19-0.06,0.28-0.1c0.01-0.02,0.01-0.04,0.02-0.05
		C244.9,124.92,244.89,124.89,244.88,124.87z M225.82,125.98c0,0.01,0,0.02,0.01,0.03c0.01,0.02,0.02,0.04,0.04,0.05
		C225.85,126.05,225.83,126.02,225.82,125.98z M225.82,125.98c0,0.01,0,0.02,0.01,0.03c0.01,0.02,0.02,0.04,0.04,0.05
		C225.85,126.05,225.83,126.02,225.82,125.98z M244.88,124.87c-0.08,0.08-0.18,0.16-0.26,0.24c0.1-0.03,0.19-0.06,0.28-0.1
		c0.01-0.02,0.01-0.04,0.02-0.05C244.9,124.92,244.89,124.89,244.88,124.87z M244.88,124.87c-0.08,0.08-0.18,0.16-0.26,0.24
		c0.1-0.03,0.19-0.06,0.28-0.1c0.01-0.02,0.01-0.04,0.02-0.05C244.9,124.92,244.89,124.89,244.88,124.87z M225.82,125.98
		c0,0.01,0,0.02,0.01,0.03c0.01,0.02,0.02,0.04,0.04,0.05C225.85,126.05,225.83,126.02,225.82,125.98z M225.82,125.98
		c0,0.01,0,0.02,0.01,0.03c0.01,0.02,0.02,0.04,0.04,0.05C225.85,126.05,225.83,126.02,225.82,125.98z M244.88,124.87
		c-0.08,0.08-0.18,0.16-0.26,0.24c0.1-0.03,0.19-0.06,0.28-0.1c0.01-0.02,0.01-0.04,0.02-0.05
		C244.9,124.92,244.89,124.89,244.88,124.87z M244.88,124.87c-0.08,0.08-0.18,0.16-0.26,0.24c0.1-0.03,0.19-0.06,0.28-0.1
		c0.01-0.02,0.01-0.04,0.02-0.05C244.9,124.92,244.89,124.89,244.88,124.87z M225.82,125.98c0,0.01,0,0.02,0.01,0.03
		c0.01,0.02,0.02,0.04,0.04,0.05C225.85,126.05,225.83,126.02,225.82,125.98z M225.82,125.98c0,0.01,0,0.02,0.01,0.03
		c0.01,0.02,0.02,0.04,0.04,0.05C225.85,126.05,225.83,126.02,225.82,125.98z M228.5,129.6c-0.05,0-0.08,0-0.13,0.01
		c0.05,0.02,0.1,0.04,0.15,0.05C228.52,129.64,228.51,129.62,228.5,129.6z M244.88,124.87c-0.08,0.08-0.18,0.16-0.26,0.24
		c0.1-0.03,0.19-0.06,0.28-0.1c0.01-0.02,0.01-0.04,0.02-0.05C244.9,124.92,244.89,124.89,244.88,124.87z M244.88,124.87
		c-0.08,0.08-0.18,0.16-0.26,0.24c0.1-0.03,0.19-0.06,0.28-0.1c0.01-0.02,0.01-0.04,0.02-0.05
		C244.9,124.92,244.89,124.89,244.88,124.87z M228.5,129.6c-0.05,0-0.08,0-0.13,0.01c0.05,0.02,0.1,0.04,0.15,0.05
		C228.52,129.64,228.51,129.62,228.5,129.6z M225.82,125.98c0,0.01,0,0.02,0.01,0.03c0.01,0.02,0.02,0.04,0.04,0.05
		C225.85,126.05,225.83,126.02,225.82,125.98z M225.82,125.98c0,0.01,0,0.02,0.01,0.03c0.01,0.02,0.02,0.04,0.04,0.05
		C225.85,126.05,225.83,126.02,225.82,125.98z M228.5,129.6c-0.05,0-0.08,0-0.13,0.01c0.05,0.02,0.1,0.04,0.15,0.05
		C228.52,129.64,228.51,129.62,228.5,129.6z M244.88,124.87c-0.08,0.08-0.18,0.16-0.26,0.24c0.1-0.03,0.19-0.06,0.28-0.1
		c0.01-0.02,0.01-0.04,0.02-0.05C244.9,124.92,244.89,124.89,244.88,124.87z M244.88,124.87c-0.08,0.08-0.18,0.16-0.26,0.24
		c0.1-0.03,0.19-0.06,0.28-0.1c0.01-0.02,0.01-0.04,0.02-0.05C244.9,124.92,244.89,124.89,244.88,124.87z M228.37,129.61
		c0.05,0.02,0.1,0.04,0.15,0.05c-0.01-0.02-0.02-0.05-0.02-0.06C228.46,129.6,228.42,129.6,228.37,129.61z M225.83,126.02
		c0.01,0.02,0.02,0.04,0.04,0.05c-0.02-0.02-0.03-0.05-0.05-0.08C225.82,125.99,225.82,126.01,225.83,126.02z M280.43,104.2
		c0.08-3.98-0.41-7.85-2.18-11.48c-1.33-1.97-2.39-4.18-4.67-5.32c-2.31-1.78-5.15-2.87-7-5.25c0.17-10.32-2.69-20.12-4.23-30.22
		c-0.37-2.37-1.13-4.67-1.49-7.03c-0.51-3.39-0.8-6.94-2.33-9.99c-1.29-2.55-2.21-5.27-3.3-7.92c-1.83-3.16-4.25-5.95-7.17-8.15
		c-2.44-1.83-4.99-3.32-8.07-3.72c-2.05-0.27-4.06,0.2-6.08,0.47c-2.05,0.27-4.15,0.48-6.06,1.33c-4.88,2.17-9.99,3.77-14.72,0.29
		c-2.67-1.95-5.49-3.42-8.41-4.81c-6.41-1.82-12.19-0.92-16.95,4.05c-4,4.17-7.63,8.7-12.18,12.33c-1.5,1.2-3.3,1.88-4.95,2.8
		c-2.54,1.43-5.26,1.98-7.68,3.72c-2.58,1.87-5.03,3.92-7.39,6.06c-2.58,2.33-5.13,4.84-8.35,6.26c-1.52,0.67-3.13,1.14-4.64,1.85
		c-2.47,1.15-5.23,1.51-7.74,2.72c-1.2,0.57-2.51,0.96-3.6,1.72c-1.7,1.2-3,4.55-3.52,6.48c-0.8,3.07-1,6.25-1.98,9.27
		c-0.79,2.42-1.82,4.78-3.01,7.03c-1.23,2.31-2.68,4.6-3.13,7.23c-0.1,0.59-0.1,1.26,0.07,1.82c0,0,0,0,0,0.01
		c0.16,0.51,0.45,0.93,0.93,1.15l0.01,0.01c0.27,0.12,0.55,0.16,0.84,0.12c0,0,0,0,0.01,0c0.22-0.02,0.44-0.08,0.64-0.17
		c0.05-0.02,0.08-0.05,0.13-0.07c0.25-0.13,0.48-0.3,0.67-0.51c0.57-0.62,0.87-1.44,1.14-2.25c1.92-5.56,3.82-11.12,5.72-16.69
		c1.61-4.69,3.47-9.73,7.64-12.42c3.36-2.17,7.6-2.38,11.28-3.95c6.64-2.84,10.72-9.76,17.12-13.1c3.06-1.6,6.53-2.31,9.52-4.03
		c4.51-2.59,7.46-7.15,10.78-11.16c3.33-4,7.71-7.81,12.91-7.85c2.28-0.02,4.39,0.68,6.44,1.66c0.38,0.18,0.77,0.37,1.15,0.57
		c3.39,1.75,6.67,4.02,10.34,4.77c0.25,0.06,0.51,0.11,0.77,0.14c0.11,0.02,0.21,0.03,0.32,0.05c3.85,0.45,7.56-0.95,11.31-2.15
		c0.25-0.08,0.48-0.15,0.73-0.22c2.22-0.68,4.46-1.24,6.75-1.25c0.5,0,1,0.02,1.48,0.08h0.01c0.31,0.03,0.61,0.07,0.9,0.12
		c1.76,0.3,3.43,0.92,5,1.79h0.01c0.57,0.31,1.12,0.67,1.66,1.05c1,0.71,1.95,1.52,2.83,2.42c0.41,0.41,0.8,0.84,1.18,1.29
		c1.94,2.28,3.49,4.94,4.55,7.68c2.9,7.53,3.1,15.79,4.53,23.74c1.04,5.78,2.76,11.47,3,17.34c0.08,2.14-0.05,4.33-0.49,6.45
		c-0.07,0.36-0.15,0.72-0.25,1.08c-0.83,3.28-2.38,6.31-4.87,8.58c-4.67,4.23-11.48,4.87-17.76,5.3c-1.18,0.08-2.46,0.13-3.42-0.55
		c-0.77-0.55-1.16-1.47-1.5-2.34c-0.88-2.24-1.65-4.51-2.31-6.82v-0.01c-0.17-0.57-0.33-1.15-0.48-1.73v-0.01
		c-3.56-13.63-3.36-28.22,0.68-41.72c0.24-0.79,0.3-1.81,0.11-2.62c0.01-0.01,0-0.01,0-0.01c-0.02-0.05-0.02-0.11-0.05-0.16
		c-0.08-0.31-0.22-0.58-0.4-0.78c-0.11-0.12-0.23-0.22-0.38-0.28l-0.01-0.01c-0.19-0.09-0.43-0.13-0.7-0.08
		c-0.41,0.07-0.77,0.34-1.07,0.63c-1.33,1.21-2.28,2.82-2.71,4.57c-0.25-1.7-0.5-3.4-0.75-5.1c-0.05-0.39-0.13-0.81-0.43-1.07
		c-0.34-0.29-0.69-0.26-1-0.03c-0.09,0.05-0.18,0.14-0.25,0.23c-0.44,0.48-0.76,1.29-0.78,1.96c-0.73,17.46,0.88,35.03,4.77,52.06
		c0.65,2.83,1.26,6.09-0.52,8.38c-1.22,1.56-3.24,2.2-4.99,3.13c-2.33,1.24-4.31,3.13-5.67,5.4c-0.11,0.18-0.21,0.37-0.31,0.55
		c-0.11,0.18-0.21,0.37-0.31,0.54c-0.48,0.86-1,1.69-1.79,2.27c-1.66,1.22-4,0.93-5.92,0.18c-3.9-1.52-6.84-4.48-9.12-8.02
		c0-0.01,0-0.01-0.01-0.01c-0.39-0.6-0.76-1.22-1.1-1.85c-1.35-2.41-2.44-5.02-3.34-7.58c-4.76-13.46-6.82-28.24-3.32-42.09
		c0.15-0.6,0.28-1.31-0.03-1.79c-0.05-0.08-0.12-0.16-0.2-0.23c-0.02-0.02-0.04-0.03-0.05-0.04c-0.27-0.21-0.59-0.24-0.9-0.15
		c-0.06,0.01-0.12,0.03-0.18,0.06h-0.01c-0.51,0.21-0.99,0.66-1.31,1.12c-0.75,1.07-1.36,2.18-1.86,3.35v0.01
		c-0.08,0.17-0.15,0.34-0.21,0.52c-1.5,3.81-1.81,8.05-1.6,12.35c0,0,0,0,0,0.01c0.03,0.69,0.08,1.37,0.14,2.06
		c0.05,0.55,0.09,1.1,0.15,1.66v0.09c0.17,1.54,0.38,3.05,0.6,4.55c0.08,0.53,0.15,1.06,0.24,1.59c1.89,12.6,4.61,25.75,13.3,34.98
		c1.05,1.11,2.25,2.34,2.2,3.87c-0.07,1.85-1.92,3.07-3.61,3.86c-4.31,2.02-8.96,3.49-13.72,3.53c-1.65,0.01-3.33-0.17-4.94-0.55
		c-0.01,0-0.02,0-0.03-0.01c-0.01,0.01-0.02,0.01-0.02,0c-0.79-0.18-1.58-0.41-2.34-0.7c-0.01-0.01-0.02-0.01-0.02,0
		c-2.13-0.79-4.08-1.97-5.72-3.55c-5.43-5.23-6.19-13.5-6.84-21.01c-0.67-7.83-1.57-15.65-2.7-23.43c-0.21-1.43-0.81-3.24-2.26-3.26
		c-1.07-0.02-1.64,0.87-1.89,1.97c-0.07,0.32-0.11,0.66-0.14,0.99c-0.02,0.18-0.02,0.35-0.02,0.53c0,0.21,0.01,0.43,0.03,0.63
		c0.01,0.11,0.02,0.21,0.03,0.31c0,0,0,0,0,0.01c0.75,8.15,1.49,16.3,2.24,24.45c0.48,5.21,0.97,10.5,2.86,15.38
		c0.06,0.15,0.12,0.3,0.18,0.45v0.01c0.17,0.43,0.36,0.86,0.55,1.27c0.31,0.64,0.64,1.26,1,1.87c0.13,0.23,0.27,0.46,0.42,0.68
		c1.96,3.1,4.67,5.69,8.06,7.03c-6.13,1.74-12.78,3.46-18.86,2.11c-0.02,0-0.05-0.01-0.07-0.01c-1.13-0.25-2.23-0.61-3.3-1.1
		c-0.76-0.34-1.49-0.74-2.18-1.17c-5-3.19-8.24-8.83-10.34-14.48c-1.67-4.5-2.84-9.2-4.51-13.69v-0.01
		c-0.15-0.42-0.31-0.82-0.49-1.23v-0.02c-0.2-0.54-0.43-1.07-0.67-1.59c-0.05-0.11-0.09-0.23-0.15-0.34
		c-0.38-0.83-0.77-1.64-1.2-2.44c-0.16-0.31-0.38-0.64-0.65-0.86c-0.01-0.01-0.01-0.01-0.01-0.01h-0.01
		c-0.22-0.19-0.48-0.3-0.77-0.25c-0.09,0.02-0.18,0.05-0.25,0.08c-0.16,0.08-0.28,0.21-0.38,0.36c-0.18,0.28-0.29,0.64-0.42,1v0.01
		c-0.02,0.08-0.05,0.16-0.09,0.24c-0.13,0.33-0.3,0.64-0.57,0.84c-0.31,0.22-0.7,0.26-1.08,0.29c-0.12,0.02-0.25,0.03-0.37,0.05
		c-0.2,0.02-0.4,0.07-0.57,0.16c-0.11,0.06-0.21,0.13-0.29,0.21c-0.03,0.02-0.06,0.05-0.08,0.08c-0.16,0.18-0.25,0.38-0.29,0.61
		v0.01c-0.04,0.16-0.04,0.34-0.02,0.52c0.07,0.82,0.57,1.78,1.1,2.45c4.03,5.17,7.11,11.08,9.04,17.34c-7-7.66-12.15-17-14.89-27.01
		c-0.03-0.13-0.07-0.25-0.11-0.34c-0.11-0.3-0.22-0.51-0.34-0.64c-0.54-0.63-1.21,0.16-1.62,1.11c-0.18,0.4-0.3,0.83-0.35,1.19
		c-0.17,1.2-0.2,2.66-0.05,3.86c0.08,0.64,0.25,1.26,0.69,1.75c0.69,3.53,3.51,5.92,4.87,9.1c3.05,7,7.55,12.97,13.03,18.25
		c0.77,0.57,1.54,1.13,2.31,1.69c0.34,0.98,0.9,1.8,1.75,2.41c7.63,6.11,16.38,6.95,25.63,5.46c0.8,0,1.61,0.01,2.41-0.05
		c1.42-0.02,2.83-0.2,4.07-0.89c2.92-1.6,5.94-2.92,9.2-3.64c1.13-0.28,2.21-0.81,3.43-0.74c2.66-0.11,5.36,0.23,7.94-0.73
		c1.51-0.57,3.25-0.63,4.38-2.02c0.52-0.9,1.49-1.07,2.34-1.46c2.62-1,4.29-3,5.85-5.24c2.08-2.97,7.13-2.22,8.74,1.21
		c0,1.38,0.32,2.54,1.14,3.66c0.66,0.9,1.1,1.89,1.51,2.92l0.43,1.11c0,0.01,0,0.02,0.01,0.02c0.41,1.07,0.85,2.12,1.52,3.06
		c1.45,2.05,3.5,3.44,6.01,3.83c5.63,0.88,11.37,0.5,16.94-0.68c2.58-0.54,5.12-1.62,7.7-2.04c2.34-0.38,4.61,0.74,6.94,0.64
		c2.74-0.13,5.39-0.89,8.05-1.46c1.89-0.41,4.13-0.75,5.64-2.06c1.63-1.4,3.03-3.34,4.52-4.9
		C280.28,117.88,280.75,111.15,280.43,104.2z M277.88,112.08c-0.77,8.41-7.25,14.48-16.18,15.69c-6.16,0.83-12.38,1.19-18.57,1.76
		c-0.39,0.06-0.77,0.13-1.16,0.2c-5.03,0.89-10.05,2.09-15.16,0.9c-0.48-0.11-0.97-0.25-1.46-0.41c-4.27-1.2-5.89-4.51-6.77-8.42
		c-1.92-6.46-0.26-12,5.03-15.66c5.33-3.69,11.25-6.14,17.65-7.36c2.67-0.72,5.3-1.69,8.02-2.12c7.61-1.19,12.81-5.06,14.93-12.98
		c1,0.78,1.67,1.58,2.54,1.95C278.92,90.89,278.83,101.45,277.88,112.08z M244.62,125.1c0.1-0.03,0.19-0.06,0.28-0.1
		c0.01-0.02,0.01-0.04,0.02-0.05c-0.02-0.03-0.02-0.06-0.04-0.08C244.79,124.94,244.7,125.03,244.62,125.1z M228.37,129.61
		c0.05,0.02,0.1,0.04,0.15,0.05c-0.01-0.02-0.02-0.05-0.02-0.06C228.46,129.6,228.42,129.6,228.37,129.61z M225.83,126.02
		c0.01,0.02,0.02,0.04,0.04,0.05c-0.02-0.02-0.03-0.05-0.05-0.08C225.82,125.99,225.82,126.01,225.83,126.02z M225.82,125.98
		c0,0.01,0,0.02,0.01,0.03c0.01,0.02,0.02,0.04,0.04,0.05C225.85,126.05,225.83,126.02,225.82,125.98z M228.5,129.6
		c-0.05,0-0.08,0-0.13,0.01c0.05,0.02,0.1,0.04,0.15,0.05C228.52,129.64,228.51,129.62,228.5,129.6z M244.88,124.87
		c-0.08,0.08-0.18,0.16-0.26,0.24c0.1-0.03,0.19-0.06,0.28-0.1c0.01-0.02,0.01-0.04,0.02-0.05
		C244.9,124.92,244.89,124.89,244.88,124.87z M244.88,124.87c-0.08,0.08-0.18,0.16-0.26,0.24c0.1-0.03,0.19-0.06,0.28-0.1
		c0.01-0.02,0.01-0.04,0.02-0.05C244.9,124.92,244.89,124.89,244.88,124.87z M228.5,129.6c-0.05,0-0.08,0-0.13,0.01
		c0.05,0.02,0.1,0.04,0.15,0.05C228.52,129.64,228.51,129.62,228.5,129.6z M225.82,125.98c0,0.01,0,0.02,0.01,0.03
		c0.01,0.02,0.02,0.04,0.04,0.05C225.85,126.05,225.83,126.02,225.82,125.98z M225.82,125.98c0,0.01,0,0.02,0.01,0.03
		c0.01,0.02,0.02,0.04,0.04,0.05C225.85,126.05,225.83,126.02,225.82,125.98z M244.88,124.87c-0.08,0.08-0.18,0.16-0.26,0.24
		c0.1-0.03,0.19-0.06,0.28-0.1c0.01-0.02,0.01-0.04,0.02-0.05C244.9,124.92,244.89,124.89,244.88,124.87z M244.88,124.87
		c-0.08,0.08-0.18,0.16-0.26,0.24c0.1-0.03,0.19-0.06,0.28-0.1c0.01-0.02,0.01-0.04,0.02-0.05
		C244.9,124.92,244.89,124.89,244.88,124.87z M225.82,125.98c0,0.01,0,0.02,0.01,0.03c0.01,0.02,0.02,0.04,0.04,0.05
		C225.85,126.05,225.83,126.02,225.82,125.98z M225.82,125.98c0,0.01,0,0.02,0.01,0.03c0.01,0.02,0.02,0.04,0.04,0.05
		C225.85,126.05,225.83,126.02,225.82,125.98z M244.88,124.87c-0.08,0.08-0.18,0.16-0.26,0.24c0.1-0.03,0.19-0.06,0.28-0.1
		c0.01-0.02,0.01-0.04,0.02-0.05C244.9,124.92,244.89,124.89,244.88,124.87z M244.88,124.87c-0.08,0.08-0.18,0.16-0.26,0.24
		c0.1-0.03,0.19-0.06,0.28-0.1c0.01-0.02,0.01-0.04,0.02-0.05C244.9,124.92,244.89,124.89,244.88,124.87z M225.82,125.98
		c0,0.01,0,0.02,0.01,0.03c0.01,0.02,0.02,0.04,0.04,0.05C225.85,126.05,225.83,126.02,225.82,125.98z M225.82,125.98
		c0,0.01,0,0.02,0.01,0.03c0.01,0.02,0.02,0.04,0.04,0.05C225.85,126.05,225.83,126.02,225.82,125.98z M244.88,124.87
		c-0.08,0.08-0.18,0.16-0.26,0.24c0.1-0.03,0.19-0.06,0.28-0.1c0.01-0.02,0.01-0.04,0.02-0.05
		C244.9,124.92,244.89,124.89,244.88,124.87z M244.88,124.87c-0.08,0.08-0.18,0.16-0.26,0.24c0.1-0.03,0.19-0.06,0.28-0.1
		c0.01-0.02,0.01-0.04,0.02-0.05C244.9,124.92,244.89,124.89,244.88,124.87z M225.82,125.98c0,0.01,0,0.02,0.01,0.03
		c0.01,0.02,0.02,0.04,0.04,0.05C225.85,126.05,225.83,126.02,225.82,125.98z M225.82,125.98c0,0.01,0,0.02,0.01,0.03
		c0.01,0.02,0.02,0.04,0.04,0.05C225.85,126.05,225.83,126.02,225.82,125.98z M244.88,124.87c-0.08,0.08-0.18,0.16-0.26,0.24
		c0.1-0.03,0.19-0.06,0.28-0.1c0.01-0.02,0.01-0.04,0.02-0.05C244.9,124.92,244.89,124.89,244.88,124.87z M244.88,124.87
		c-0.08,0.08-0.18,0.16-0.26,0.24c0.1-0.03,0.19-0.06,0.28-0.1c0.01-0.02,0.01-0.04,0.02-0.05
		C244.9,124.92,244.89,124.89,244.88,124.87z M225.82,125.98c0,0.01,0,0.02,0.01,0.03c0.01,0.02,0.02,0.04,0.04,0.05
		C225.85,126.05,225.83,126.02,225.82,125.98z M225.82,125.98c0,0.01,0,0.02,0.01,0.03c0.01,0.02,0.02,0.04,0.04,0.05
		C225.85,126.05,225.83,126.02,225.82,125.98z M244.88,124.87c-0.08,0.08-0.18,0.16-0.26,0.24c0.1-0.03,0.19-0.06,0.28-0.1
		c0.01-0.02,0.01-0.04,0.02-0.05C244.9,124.92,244.89,124.89,244.88,124.87z M244.88,124.87c-0.08,0.08-0.18,0.16-0.26,0.24
		c0.1-0.03,0.19-0.06,0.28-0.1c0.01-0.02,0.01-0.04,0.02-0.05C244.9,124.92,244.89,124.89,244.88,124.87z M225.82,125.98
		c0,0.01,0,0.02,0.01,0.03c0.01,0.02,0.02,0.04,0.04,0.05C225.85,126.05,225.83,126.02,225.82,125.98z M225.82,125.98
		c0,0.01,0,0.02,0.01,0.03c0.01,0.02,0.02,0.04,0.04,0.05C225.85,126.05,225.83,126.02,225.82,125.98z M244.88,124.87
		c-0.08,0.08-0.18,0.16-0.26,0.24c0.1-0.03,0.19-0.06,0.28-0.1c0.01-0.02,0.01-0.04,0.02-0.05
		C244.9,124.92,244.89,124.89,244.88,124.87z M244.88,124.87c-0.08,0.08-0.18,0.16-0.26,0.24c0.1-0.03,0.19-0.06,0.28-0.1
		c0.01-0.02,0.01-0.04,0.02-0.05C244.9,124.92,244.89,124.89,244.88,124.87z M225.82,125.98c0,0.01,0,0.02,0.01,0.03
		c0.01,0.02,0.02,0.04,0.04,0.05C225.85,126.05,225.83,126.02,225.82,125.98z M225.82,125.98c0,0.01,0,0.02,0.01,0.03
		c0.01,0.02,0.02,0.04,0.04,0.05C225.85,126.05,225.83,126.02,225.82,125.98z M244.88,124.87c-0.08,0.08-0.18,0.16-0.26,0.24
		c0.1-0.03,0.19-0.06,0.28-0.1c0.01-0.02,0.01-0.04,0.02-0.05C244.9,124.92,244.89,124.89,244.88,124.87z M244.88,124.87
		c-0.08,0.08-0.18,0.16-0.26,0.24c0.1-0.03,0.19-0.06,0.28-0.1c0.01-0.02,0.01-0.04,0.02-0.05
		C244.9,124.92,244.89,124.89,244.88,124.87z M225.82,125.98c0,0.01,0,0.02,0.01,0.03c0.01,0.02,0.02,0.04,0.04,0.05
		C225.85,126.05,225.83,126.02,225.82,125.98z"/>
	<path class="st9" d="M266.74,85.62c-0.87-0.38-1.54-1.17-2.54-1.95c-2.12,7.92-7.32,11.79-14.93,12.98
		c-2.72,0.42-5.35,1.39-8.02,2.12c-6.4,1.23-12.31,3.68-17.65,7.36c-5.3,3.66-6.95,9.2-5.03,15.66c0.89,3.91,2.51,7.23,6.77,8.42
		c0.48,0.16,0.97,0.29,1.46,0.41c5.11,1.2,10.13-0.01,15.16-0.9c0.39-0.07,0.77-0.14,1.16-0.2c6.19-0.57,12.41-0.93,18.57-1.76
		c8.93-1.2,15.41-7.28,16.18-15.69C278.83,101.45,278.92,90.89,266.74,85.62z M225.83,126.02c-0.01-0.01-0.01-0.02-0.01-0.03
		c0.02,0.03,0.03,0.06,0.05,0.08C225.85,126.05,225.83,126.04,225.83,126.02z M228.37,129.61c0.05-0.01,0.08-0.01,0.13-0.01
		c0.01,0.02,0.02,0.04,0.02,0.06C228.47,129.65,228.42,129.62,228.37,129.61z M241.23,110.24
		C241.15,110.18,241.31,110.2,241.23,110.24L241.23,110.24z M244.9,125c-0.09,0.04-0.18,0.07-0.28,0.1
		c0.08-0.08,0.18-0.16,0.26-0.24c0.02,0.02,0.02,0.05,0.04,0.08C244.91,124.97,244.91,124.99,244.9,125z"/>
	<path class="st7" d="M217.8,127.06c-4.44-0.49-6.36,1.19-6.68,5.83c-0.31,4.39-1.96,8.69-2.94,13.05
		c-0.35,1.53-1.03,3.15,0.43,4.55c0.23,0.19,0.28,0.35,0.16,0.46c-0.1,0.09-0.2,0.13-0.31,0.13c-1.22,0.21-2.74,0.82-2.24-1.47
		c1.59-7.27,3.15-14.54,4.8-21.8c0.83-3.66,4.02-1.39,6.01-2.16C217.79,125.85,217.75,126.48,217.8,127.06z"/>
	<path class="st9" d="M196.23,100.44c-4.2-7.15-5.07-15.27-6.7-23.15c-1.79-8.69-1.69-17.32,1.46-25.75
		c0.49-3.16,1.58-6.2,1.58-9.46c-0.35,2.75-0.04,5.73-2.35,7.87c-0.8,1.76-1.6,3.53-2.39,5.29c-3.16,0.2-4.63-2.72-6.95-3.69
		c-0.47-0.53-0.69,0.36-0.4-0.06c0.09-0.14,0.19-0.09,0.36,0.07c1.74,1.69,2.09,3.96,2.62,6.16c1.03,4.27,1.1,8.73,2.5,12.93
		c0.91,9.82-0.45,19.53-1.43,29.25c-0.46,4.52,0.04,5.1,4.81,5.57c1.67,0.17,3.29,0.45,4.72,1.36c1.12,0.71,2.02,1.62,1.94,3.06
		c-0.09,1.62-1.41,1.96-2.64,2.31c-3.28,0.95-6.65,1.46-9.95,2.34c3.52-0.81,7.02-1.83,10.69-1.45c1.4,0.15,3.01,0.15,3.62,1.64
		c0.72,1.74-0.63,3.02-1.82,3.82c-6.43,4.31-13.54,5.47-21.11,4.08c-7.63-3.67-9.64-10.67-10.54-18.18
		c-1.12-9.32-1.97-18.68-3.01-28.01c-0.15-1.36-0.7-2.68-1.18-3.98c-0.12-0.32-0.48-1.05-1.06-0.6c-0.57,0.44-0.37,1.14-0.21,1.76
		c-0.1,1.83-1.06,0.62-1.52,0.34c-1-0.61-1.38-2.08-2.85-2.06c-1.52,1.86,0.72,2.88,0.95,4.34c0.2,1.27,2.06,2.71-0.41,3.68
		c-1.49-1.37-2.97-2.75-5.13-2.95c2.01,0.35,3.6,1.38,4.88,2.94c3.23,4.21,3.19,9.26,3.57,14.17c0.52,6.86,1.06,13.68,3.7,20.16
		c0.51,1.26,1.1,2.23,2.2,2.94l0,0c1.95,5.46,0.16,8.12-5.79,8.75c0.97-0.02,1.93-0.3,2.89-0.38c0.95-0.08,2.32-0.94,2.69,0.29
		c0.47,1.53-1.09,2.15-2.27,2.45c-6.1,1.56-11.76,0.72-16.72-3.42c-5.48-4.02-6.69-10.44-9.07-16.18c-1.01-2.44-1.67-5.02-2.5-7.53
		c-1.03-3.89,0.79-7.75,0.11-11.24c-0.75,1.64,1.6,4.45-1.52,5.91c-1.28-0.99-0.64-2.73-1.53-3.87c-1.4-2.86-0.62-5.83-0.51-8.84
		c-0.75,3.21,0.47,6.53-0.85,9.61c-0.12,0.21-0.19,0.43-0.19,0.67c-2.16-0.01-2.07-2.01-2.88-3.23c-0.66-0.99-0.25-2.9-2.3-2.68
		c-0.8,0.17-1.75,0.63-1.65-0.87c0.43-4.09,2.59-7.55,4.05-11.27c1.89-4.86,3.59-9.8,5.12-14.78c1.11-3.62,3.45-5.82,6.85-7.11
		c2.26-0.86,4.51-1.77,6.81-2.51c5.71-1.84,10.61-4.88,14.49-9.5c2.61-3.12,5.81-5.27,9.86-6.1c5-1.02,8.69-3.99,11.8-7.9
		c2.38-2.99,4.82-5.94,7.42-8.72c4.55-4.87,9.87-6.41,16.12-3.28c0.64,0.32,1.5,0.18,2.26,0.25c0.21,0.65-0.52,1.28-0.23,1.83
		c2.57,4.95,4.99,9.98,7.75,14.83c0.46,0.81,1.1,0.93,1.75,0.05c1.58-2.11,2.09-8.57,0.74-10.67c1.97-1.17,4.27,0.15,6.22-0.8
		c1.98-0.59,3.96-1.19,5.94-1.78c1.68,0.21,1.02,1.31,0.38,1.67c-5.14,2.82-4.62,7.62-4.54,12.32c0.02,1.37,0.16,2.81-0.91,3.96
		c-1.07,4.03-0.62,8.16,0.01,12.1c0.76,4.78,0.93,9.4,0.58,14.26c-0.58,8.01,1.39,15.85,3.53,23.58c0.94,3.41,2.16,6.77,2.08,10.4
		c-0.04,1.62-0.3,2.92-2.13,3.54c-4.45,1.51-7.86,4.52-10.92,7.96c-2.65,1.59-5.18,0.18-7.67-0.45
		C204.25,107.18,199.39,105.18,196.23,100.44z"/>
	<path class="st9" d="M249.68,23.3c5.38,7.56,9.32,15.69,9.31,25.21c-0.01,4.49,0.47,8.91,1.79,13.14c2.09,6.67,2.32,13.45,2,20.32
		c-0.71,0.24-1.42-0.03-1.61-0.62c-1.1-3.37-2.8-2.84-5.36-1.36c-3.4,1.96-7.24,3.02-10.71,3.67c2.28-0.02,4.67-1.34,7.22-2
		c1.01-0.26,2.16-0.51,2.8,0.46c0.63,0.95,0.04,1.99-0.59,2.8c-3.04,3.91-6.98,6.72-12.01,6.16c-5.36-0.6-10.47-2.38-12.6-8.27
		c-2.62-8.21-4.37-16.46-1.61-25.03c0.34-1.05,0.41-2.31,0.19-3.39c-1.06-5.25,1.18-9.79,2.92-14.44c1.21-4.62,4.38-6.09,9.86-4.65
		c-1.81-0.84-3.71-0.59-5.62-0.51c-1.56,0.06-3.2-0.23-3.7-2.03c-0.44-1.6,0.78-2.55,1.85-3.47c0.1-0.08,0.19-0.18,0.31-0.22
		c5.41-1.62,7.64-4.37,4.41-10.05c-1.15-2.02,1.14-1.44,2.28-1.36c0.65,0.45,1.18,1.13,2.09,1.06c4.75,2.87,4.96,7.52,4.83,12.3
		c-0.04,1.4-0.21,2.77-0.97,4.56c1.79-3.46,2.37-6.6,1.96-9.94C248.64,24.8,248.1,23.56,249.68,23.3z"/>
	<path class="st10" d="M226.81,130.62c-0.48-0.04-0.97-0.21-1.46-0.41C225.83,130.38,226.32,130.51,226.81,130.62z"/>
	<path class="st10" d="M228.52,129.66c-0.05-0.02-0.1-0.04-0.15-0.05c0.05-0.01,0.08-0.01,0.13-0.01
		C228.51,129.62,228.52,129.64,228.52,129.66z"/>
	<path class="st10" d="M241.23,110.24C241.15,110.18,241.31,110.2,241.23,110.24L241.23,110.24z"/>
	<path class="st10" d="M243.13,129.53c-0.43,0.19-0.83,0.3-1.16,0.2C242.36,129.66,242.74,129.59,243.13,129.53z"/>
	<path class="st10" d="M244.92,124.95c-0.01,0.02-0.01,0.04-0.02,0.05c-0.09,0.04-0.18,0.07-0.28,0.1c0.08-0.08,0.18-0.16,0.26-0.24
		C244.89,124.89,244.9,124.92,244.92,124.95z"/>
	<path class="st11" d="M174.79,122.64c4.43-0.38,8.89-0.5,13.23-1.6c1.84-0.47,3.74-0.94,5.42-1.8c1.75-0.9,4.24-2.16,3.67-4.27
		c-0.52-1.93-3.13-0.82-4.81-0.89c-4.07-0.19-7.96,1.31-12.21,0.82c4.34-1.23,8.68-2.46,13.02-3.7c0.9-0.26,2.28,0.13,2.37-1.33
		c0.08-1.32-0.92-2.03-2.03-2.48c-1.79-0.72-3.69-1.21-5.6-0.84c-3.83,0.75-4.73-1.16-4.44-4.46c0.56-6.58,0.83-13.2,1.68-19.74
		c0.53-4.08,0.2-8.13,0.39-12.18c-0.26-0.53-0.17-1,0.26-1.41c1.35,8.77,2.64,17.56,5.27,26.07c2.2,7.12,5,13.92,11.46,18.37
		c1.19,0.82,1.44,1.7,0.75,2.86c-0.71,1.19-1.34,2.49-2.29,3.46C195.86,124.67,181.35,126.33,174.79,122.64z"/>
	<path class="st12" d="M240.83,17.66c-0.22,0.7-2.89-0.92-1.36,1.37c0.8,1.19,1.35,2.45,1.69,3.81c0.69,2.73-0.02,4.78-2.98,5.62
		c-0.73,0.21-1.45,0.47-2.18,0.7c-1.77,0.56-3.72,1.49-3.38,3.45c0.31,1.82,2.51,1.2,3.96,1.29c2,0.13,3.99,0.2,6.5,1.39
		c-4.89,0.27-9.4-0.11-11.65,4.66c-0.02-2.88-1.4-1.38-2.12-0.53c-1.47,1.74-1.88,4.04-2.79,6.4c-1.8-1.92-1.43-4.2-1.64-6.27
		c-0.09-0.94,0.52-2.04-0.91-2.44c-0.09-2-0.1-4-0.29-5.99c-0.44-4.67,0.18-8.77,5.17-10.83c0.59-0.24,0.65-0.66,0.19-1.13
		C232.81,17.27,236.65,16.14,240.83,17.66z"/>
	<path class="st11" d="M229.95,82.81c2.86,3.31,5.99,6.12,10.51,7.04c5.95,1.22,11.55-1.64,14.25-7.69c-4.07,0.5-7.68,3.1-12.59,1.9
		c3.81-1.3,7.01-2.34,10.18-3.5c1.42-0.52,2.85-1.14,4.13-1.94c3.68-2.33,3.65-2.38,5.15,2.01c0.21,0.63,0.57,1.13,1.23,1.34
		c-1.96,7.26-7.57,10.7-14.06,12.92c-3.81,1.3-7.89,1.63-11.95,1.83c-1.9,0.09-3.05-0.33-3.57-2.35
		C232.23,90.5,229.89,87,229.95,82.81z"/>
	<path class="st11" d="M164.18,117.19c-1.02-0.51-4.9,2.78-2.72-2.04c0.11-0.24-0.21-0.7-0.38-1.04c-3.24-6.3-3.2-13.24-3.79-20.03
		c-0.43-4.95-0.76-9.88-3.22-14.36c0.3-0.34,0.63-0.37,0.99-0.08c0.98-2.55-1.2-4.03-2.15-5.85c-1.02-1.94-0.61-2.78,1.38-3.19
		c1.7,1.49,3.24,3.09,3.63,5.44c2.72,4.82,1.97,10.22,2.12,15.33C160.3,100.21,160.82,108.9,164.18,117.19z"/>
	<path class="st13" d="M122.09,86.63c0.67,0.86,1.19,0.57,1.64-0.22c2.75,2.53,3.95,6.48,2.84,9.3c-0.27-0.21-0.54-0.41-0.82-0.62
		c-1.24-0.53-1.77-1.65-2.36-2.98c0.43,1.48,1.49,2.47,1.63,3.84c6.65,4.89,7.93,12.82,11.19,19.64c0.46,0.95,0.73,1.87,0.14,3.12
		c-6.03-7.1-10.72-14.99-15.5-22.78c-1.43-2.33-0.81-5.64-0.18-8.51l-0.05,0.06C121.11,87.21,121.6,86.92,122.09,86.63z"/>
	<path class="st14" d="M223.12,20.94c-1.59,1.41-3.62,0.48-5.44,1.02c0.74,0.69,2.77,0.27,2.08,2.04
		c-1.44,3.71-1.87,7.81-4.13,11.77c-2.42-2.96-3.84-5.92-5.2-8.85c-1.34-2.9-2.77-5.74-4.59-8.34c-1.19-1.69-0.54-2.38,1.06-2.89
		c0.67,0.29,1.52,0.41,2,0.89C212.87,20.57,217.74,21.56,223.12,20.94z"/>
	<path class="st14" d="M144.99,124.89c4.35,2.62,9.01,3.65,14.08,3c1.65-0.21,3.15-0.67,4.57-1.6c-2.07-0.19-4.1,0.4-6.49-0.33
		c5.22-0.81,8.19-3.26,7.03-8.76c3.16,3.36,5.55,7.55,10.24,9.26C169.01,132.56,151.44,131.53,144.99,124.89z"/>
	<path class="st11" d="M196.23,100.44c6.01,5.17,13.04,7.85,20.9,8.5c-2.51,5.79-2.53,5.86-8.49,3.83
		C202.53,110.68,198.5,106.43,196.23,100.44z"/>
	<path class="st14" d="M185.73,68.77c-0.09,0.47-0.17,0.94-0.26,1.4c-0.97-2.88-1.87-5.77-2.3-8.81c-0.59-4.26-1.19-8.55-4.7-11.74
		c3.62,1.18,6.32,3.68,9.36,5.61C186.48,59.65,185.74,64.15,185.73,68.77z"/>
	<path class="st15" d="M249.68,23.3c0.75,5.49,0.17,10.61-4.1,14.78c2.13-6.92,2.43-13.51-2.66-19.36
		C245.93,19.14,247.87,21.13,249.68,23.3z"/>
	<path class="st16" d="M132.01,95.85c1.86-2.9,0.22-6.38,1.83-10.41c1.67,5.96-0.29,10.84-0.42,15.74
		C132.51,99.52,132.16,97.71,132.01,95.85z"/>
	<path class="st17" d="M126.57,95.72c0.09-3.42-1.41-6.35-2.84-9.3c0.71-1.94,1.17-0.91,1.78,0.1c1.33,2.21,1.27,5.1,3.41,6.9
		C129.63,95.7,128.58,96.2,126.57,95.72z"/>
	<path class="st18" d="M228.52,129.66c-0.05-0.02-0.1-0.04-0.15-0.05c0.05-0.01,0.08-0.01,0.13-0.01
		C228.51,129.62,228.52,129.64,228.52,129.66z"/>
	<path class="st19" d="M129.12,92.74c-0.33-3.82-0.82-7.66,1.35-11.25c-0.39,3.52-0.01,7,0.01,10.49
		C130.03,92.23,129.57,92.49,129.12,92.74z"/>
	<path class="st20" d="M190.23,49.95c0.92-2.88,1.8-5.76,1.82-8.83c1.84,3.65,0.63,7.05-1.05,10.43
		C190.75,51.01,190.49,50.48,190.23,49.95z"/>
	<path class="st21" d="M118.95,94.44c-1.51-3.72-0.33-7.04,1.55-10.25c0.04,1.1,0.08,2.2,0.13,3.31c0,0,0.05-0.06,0.05-0.06
		C118.12,89.28,119.45,92.09,118.95,94.44z"/>
	<path class="st22" d="M157.91,76.06c-1.33-1.73-2.81-3.37-3.63-5.44c2.33-0.23,2.43,2.87,4.51,3.01
		C160.31,75.09,157.95,75.16,157.91,76.06z"/>
	<path class="st23" d="M125.02,95.96c-1.63-1.67-3.01-3.46-2.7-6.96c1.43,2.54,2.43,4.32,3.43,6.09
		C125.51,95.39,125.26,95.68,125.02,95.96z"/>
	<path class="st14" d="M185.6,51.02c-2.79-5.56-7.89-8.7-12.62-12.21c-1.72-1.28-1.06-2.05,0.38-2.64c3.44-1.41,6.62-3.1,8.84-6.26
		c0.71-1,2.04-1.05,3.12-0.41c1.05,0.62,0.9,1.67,0.7,2.71C184.82,38.37,185.66,44.54,185.6,51.02z"/>
	<path class="st15" d="M156.52,47.59c-1.27,7.72-0.99,14.7-0.59,21.93c-2.41-6.34-7.66-10.66-11.13-16.97
		C150.18,54.34,153,50.97,156.52,47.59z"/>
	<path class="st24" d="M155.05,79.65c-0.33,0.03-0.66,0.05-0.99,0.08c-1.87-1.95-4.6-2.09-6.8-3.38
		C150.27,76.45,153.21,76.69,155.05,79.65z"/>
	<path class="st25" d="M244.92,124.95c-0.01,0.02-0.01,0.04-0.02,0.05c-0.09,0.04-0.18,0.07-0.28,0.1c0.08-0.08,0.18-0.16,0.26-0.24
		C244.89,124.89,244.9,124.92,244.92,124.95z"/>
	<path class="st26" d="M228.52,129.66c-0.05-0.02-0.1-0.04-0.15-0.05c0.05-0.01,0.08-0.01,0.13-0.01
		C228.51,129.62,228.52,129.64,228.52,129.66z"/>
	<path class="st27" d="M244.92,124.95c-0.01,0.02-0.01,0.04-0.02,0.05c-0.09,0.04-0.18,0.07-0.28,0.1c0.08-0.08,0.18-0.16,0.26-0.24
		C244.89,124.89,244.9,124.92,244.92,124.95z"/>
	<path class="st28" d="M241.23,110.24C241.15,110.18,241.31,110.2,241.23,110.24L241.23,110.24z"/>
	<polyline class="st29" points="102.33,152.97 103.01,149.79 103.06,149.55 103.36,148.15 	"/>
	<g>
		<g>
			<path class="st11" d="M269.34,114.92l-1.14-0.17c0.67-4.52-4.29-15.03-4.34-15.13l1.04-0.49
				C265.11,99.57,270.06,110.06,269.34,114.92z"/>
		</g>
		<g>
			<path class="st11" d="M264.51,121.25c-3.47-22.42-5.84-23.38-6.1-23.42c-0.03-0.01-0.16,0.13-0.19,0.2l-1.05-0.48
				c0.17-0.37,0.65-0.96,1.39-0.86c0.84,0.12,3.38,0.47,7.08,24.38L264.51,121.25z"/>
		</g>
		<g>
			<path class="st11" d="M232.2,129.65c-5.62,0-8.89-2.49-10.26-7.78c-0.88-3.4-1.51-8.1,0.46-11.22c1.02-1.62,2.63-2.64,4.78-3.06
				l0.08-0.01c7.22-0.35,12.78,1.18,13.01,1.25l0.04,0.01c0.08,0.03,8.18,3.11,5.64,14.03c-1.09,4.68-7.7,6.57-13.02,6.76
				C232.69,129.65,232.44,129.65,232.2,129.65z M227.37,108.73c-1.81,0.35-3.15,1.21-3.99,2.53c-1.75,2.77-1.14,7.14-0.32,10.31
				c1.3,5.04,4.25,7.11,9.83,6.91c3.96-0.15,10.93-1.55,11.95-5.87c2.26-9.69-4.49-12.52-4.89-12.68
				C239.55,109.83,234.14,108.41,227.37,108.73z"/>
		</g>
		<g>
			<path class="st11" d="M244.11,124.65c-8.85-5.21-5.44-15.69-5.41-15.79l1.09,0.37c-0.13,0.39-3.14,9.7,4.9,14.43L244.11,124.65z"
				/>
		</g>
		<g>
			<polygon class="st11" points="238.62,112.66 231.05,113.02 238.47,111.52 238.62,112.66 			"/>
		</g>
		<g>
			<polygon class="st11" points="238.86,117.69 228.47,118.53 238.7,116.55 238.86,117.69 			"/>
		</g>
		<g>
			<polygon class="st11" points="240.83,121.42 233.63,123.1 240.48,120.32 240.83,121.42 			"/>
		</g>
	</g>
	<path class="st11" d="M162.04,117.38c-2.56,1.77-5.76,3.58-8.95,2.71c3.1,0.34,5.83-1.83,7.92-3.85
		C161.01,116.24,162.04,117.38,162.04,117.38L162.04,117.38z"/>
</g>
</svg>
