<?xml version="1.0" standalone="no"?>
<!DOCTYPE svg PUBLIC "-//W3C//DTD SVG 20010904//EN"
 "http://www.w3.org/TR/2001/REC-SVG-20010904/DTD/svg10.dtd">
<svg version="1.0" xmlns="http://www.w3.org/2000/svg"
 width="512.000000pt" height="512.000000pt" viewBox="0 0 512.000000 512.000000"
 preserveAspectRatio="xMidYMid meet">
<metadata>
Created by potrace 1.16, written by Peter Selinger 2001-2019
</metadata>
<g transform="translate(0.000000,512.000000) scale(0.100000,-0.100000)"
fill="#000000" stroke="none">
<path d="M1370 4836 c-74 -16 -113 -38 -166 -93 -86 -91 -112 -239 -61 -354
24 -54 94 -139 114 -139 6 0 18 19 27 42 27 67 98 168 162 231 61 60 175 138
232 158 18 6 32 17 32 24 0 27 -101 103 -166 124 -72 24 -95 25 -174 7z"/>
<path d="M1895 4610 c-136 -16 -254 -71 -355 -166 -196 -185 -249 -491 -126
-732 87 -170 241 -288 428 -326 146 -30 268 -13 407 55 248 122 384 408 326
684 -66 311 -361 521 -680 485z"/>
<path d="M1248 3339 c-93 -10 -150 -37 -183 -87 -41 -62 -276 -630 -586 -1414
l-19 -48 543 0 542 0 54 107 c57 111 61 116 249 298 104 100 135 158 130 243
l-3 60 128 -122 c70 -66 141 -131 156 -144 16 -13 211 -93 433 -178 452 -174
487 -183 573 -145 65 29 83 46 111 106 39 83 25 194 -34 258 -28 31 -79 53
-447 194 -192 74 -365 146 -384 160 -18 14 -171 156 -338 315 -234 223 -316
295 -356 313 -83 38 -401 100 -477 94 -8 -1 -50 -5 -92 -10z"/>
<path d="M3935 2298 c-27 -5 -92 -29 -143 -54 -473 -229 -480 -905 -12 -1148
104 -54 170 -69 300 -70 103 0 124 3 201 30 200 71 350 223 412 419 18 58 22
93 21 200 0 120 -3 136 -31 212 -40 107 -89 178 -174 257 -78 72 -180 127
-279 150 -71 17 -216 19 -295 4z"/>
<path d="M183 1660 c-84 -17 -152 -75 -173 -147 -8 -26 -10 -152 -8 -384 l3
-346 29 -42 c16 -23 50 -54 75 -69 l46 -27 1500 -3 1500 -2 165 -164 c133
-132 175 -167 215 -182 47 -18 87 -19 705 -19 619 0 658 1 704 19 111 43 176
140 176 261 -1 121 -70 225 -178 265 -50 19 -78 20 -617 20 l-563 0 -384 390
c-272 278 -396 397 -428 413 l-45 22 -1340 2 c-737 0 -1359 -3 -1382 -7z"/>
<path d="M0 431 l0 -161 1670 0 c919 0 1670 3 1670 8 0 4 -53 60 -118 125
l-117 117 -1490 2 -1490 3 -55 30 c-30 16 -58 31 -62 33 -5 2 -8 -69 -8 -157z"/>
</g>
</svg>
