<?xml version="1.0" standalone="no"?>
<!DOCTYPE svg PUBLIC "-//W3C//DTD SVG 20010904//EN"
 "http://www.w3.org/TR/2001/REC-SVG-20010904/DTD/svg10.dtd">
<svg version="1.0" xmlns="http://www.w3.org/2000/svg"
 width="512.000000pt" height="512.000000pt" viewBox="0 0 512.000000 512.000000"
 preserveAspectRatio="xMidYMid meet">
<metadata>
Created by potrace 1.16, written by Peter Selinger 2001-2019
</metadata>
<g transform="translate(0.000000,512.000000) scale(0.100000,-0.100000)"
fill="#000000" stroke="none">
<path d="M580 5020 c-20 -20 -20 -33 -20 -2460 0 -2427 0 -2440 20 -2460 20
-20 33 -20 1980 -20 1947 0 1960 0 1980 20 20 20 20 33 20 2460 0 2427 0 2440
-20 2460 -20 20 -33 20 -1980 20 -1947 0 -1960 0 -1980 -20z m460 -1020 l0
-880 -60 0 c-108 0 -100 43 -100 -560 0 -603 -8 -560 100 -560 l60 0 0 -880 0
-880 -160 0 -160 0 0 2320 0 2320 160 0 160 0 0 -880z m480 0 l0 -880 -160 0
-160 0 0 880 0 880 160 0 160 0 0 -880z m480 -1440 l0 -2320 -160 0 -160 0 0
880 0 880 60 0 c108 0 100 -43 100 560 0 603 8 560 -100 560 l-60 0 0 880 0
880 160 0 160 0 0 -2320z m480 2240 l0 -80 -160 0 -160 0 0 80 0 80 160 0 160
0 0 -80z m480 0 l0 -80 -160 0 -160 0 0 80 0 80 160 0 160 0 0 -80z m480 0 l0
-80 -160 0 -160 0 0 80 0 80 160 0 160 0 0 -80z m480 0 l0 -80 -160 0 -160 0
0 80 0 80 160 0 160 0 0 -80z m480 -2240 l0 -2320 -160 0 -160 0 0 80 0 80 60
0 c47 0 64 4 80 20 20 20 20 33 20 2140 0 2107 0 2120 -20 2140 -16 16 -33 20
-80 20 l-60 0 0 80 0 80 160 0 160 0 0 -2320z m-320 640 l0 -1360 -960 0 -960
0 0 80 0 80 220 0 c273 0 260 -7 260 140 l0 100 60 0 c103 0 100 -10 100 320
0 330 3 320 -100 320 l-60 0 0 100 c0 147 13 140 -260 140 l-220 0 0 720 0
720 960 0 960 0 0 -1360z m-2400 -320 l0 -80 -320 0 -320 0 0 80 0 80 320 0
320 0 0 -80z m800 40 l0 -40 -60 0 c-103 0 -100 10 -100 -320 0 -330 -3 -320
100 -320 l60 0 0 -40 0 -40 -160 0 -160 0 0 400 0 400 160 0 160 0 0 -40z
m160 -360 l0 -160 -80 0 -80 0 0 160 0 160 80 0 80 0 0 -160z m-960 -160 l0
-240 -320 0 -320 0 0 240 0 240 320 0 320 0 0 -240z m-160 -1280 l0 -880 -160
0 -160 0 0 880 0 880 160 0 160 0 0 -880z m2560 480 l0 -80 -960 0 -960 0 0
80 0 80 960 0 960 0 0 -80z m0 -640 l0 -400 -960 0 -960 0 0 400 0 400 960 0
960 0 0 -400z m-1600 -640 l0 -80 -160 0 -160 0 0 80 0 80 160 0 160 0 0 -80z
m480 0 l0 -80 -160 0 -160 0 0 80 0 80 160 0 160 0 0 -80z m480 0 l0 -80 -160
0 -160 0 0 80 0 80 160 0 160 0 0 -80z m480 0 l0 -80 -160 0 -160 0 0 80 0 80
160 0 160 0 0 -80z"/>
<path d="M3117 4370 c-56 -38 -89 -76 -125 -144 -25 -48 -27 -60 -27 -176 0
-117 2 -128 28 -178 15 -29 43 -70 62 -91 43 -47 56 -82 57 -147 1 -75 -17
-118 -68 -163 l-45 -39 38 -76 37 -75 39 22 c50 28 99 82 134 149 26 50 28 61
28 178 0 117 -2 128 -28 178 -15 29 -43 70 -62 91 -44 48 -57 83 -57 152 0 70
22 119 74 163 l39 34 -38 76 -39 77 -47 -31z"/>
<path d="M2717 4210 c-56 -38 -89 -76 -125 -144 -25 -48 -27 -60 -27 -176 0
-117 2 -128 28 -178 15 -29 43 -70 62 -91 43 -47 56 -82 57 -147 1 -75 -17
-118 -68 -163 l-45 -39 38 -76 37 -75 39 22 c50 28 99 82 134 149 26 50 28 61
28 178 0 117 -2 128 -28 178 -15 29 -43 70 -62 91 -44 48 -57 83 -57 152 0 70
22 119 74 163 l39 34 -38 76 -39 77 -47 -31z"/>
<path d="M3517 4210 c-56 -38 -89 -76 -125 -144 -25 -48 -27 -60 -27 -176 0
-117 2 -128 28 -178 15 -29 43 -70 62 -91 43 -47 56 -82 57 -147 1 -75 -17
-118 -68 -163 l-45 -39 38 -76 37 -75 39 22 c50 28 99 82 134 149 26 50 28 61
28 178 0 117 -2 128 -28 178 -15 29 -43 70 -62 91 -44 48 -57 83 -57 152 0 70
22 119 74 163 l39 34 -38 76 -39 77 -47 -31z"/>
</g>
</svg>
